<?xml version="1.0" encoding="UTF-8" standalone="no"?>
<!-- Created with Inkscape (http://www.inkscape.org/) -->

<svg
   xmlns:dc="http://purl.org/dc/elements/1.1/"
   xmlns:cc="http://creativecommons.org/ns#"
   xmlns:rdf="http://www.w3.org/1999/02/22-rdf-syntax-ns#"
   xmlns:svg="http://www.w3.org/2000/svg"
   xmlns="http://www.w3.org/2000/svg"
   xmlns:sodipodi="http://sodipodi.sourceforge.net/DTD/sodipodi-0.dtd"
   xmlns:inkscape="http://www.inkscape.org/namespaces/inkscape"
   width="139.0625"
   height="49.946213"
   id="svg7935"
   version="1.1"
   inkscape:version="0.48.1 "
   sodipodi:docname="New document 16">
  <defs
     id="defs7937" />
  <sodipodi:namedview
     id="base"
     pagecolor="#ffffff"
     bordercolor="#666666"
     borderopacity="1.0"
     inkscape:pageopacity="0.0"
     inkscape:pageshadow="2"
     inkscape:zoom="0.35"
     inkscape:cx="207.40625"
     inkscape:cy="19.262817"
     inkscape:document-units="px"
     inkscape:current-layer="layer1"
     showgrid="false"
     fit-margin-top="0"
     fit-margin-left="0"
     fit-margin-right="0"
     fit-margin-bottom="0"
     inkscape:window-width="469"
     inkscape:window-height="425"
     inkscape:window-x="2198"
     inkscape:window-y="170"
     inkscape:window-maximized="0" />
  <metadata
     id="metadata7940">
    <rdf:RDF>
      <cc:Work
         rdf:about="">
        <dc:format>image/svg+xml</dc:format>
        <dc:type
           rdf:resource="http://purl.org/dc/dcmitype/StillImage" />
        <dc:title></dc:title>
      </cc:Work>
    </rdf:RDF>
  </metadata>
  <g
     inkscape:label="Layer 1"
     inkscape:groupmode="layer"
     id="layer1"
     transform="translate(-167.59375,-501.67879)">
    <path
       transform="matrix(0.42974039,0,0,0.31299703,122.63796,314.57197)"
       d="m 155.56349,662.4433 c 0,1.95262 -1.69597,3.53553 -3.78807,3.53553 -2.09209,0 -3.78807,-1.58291 -3.78807,-3.53553 0,-1.95262 1.69598,-3.53554 3.78807,-3.53554 2.0921,0 3.78807,1.58292 3.78807,3.53554 z"
       sodipodi:ry="3.5355339"
       sodipodi:rx="3.7880721"
       sodipodi:cy="662.4433"
       sodipodi:cx="151.77542"
       id="path4308-4-11-6"
       style="fill:#000000;fill-opacity:1;fill-rule:nonzero;stroke:#9b9b9b;stroke-opacity:1;display:inline"
       sodipodi:type="arc" />
    <path
       inkscape:connector-curvature="0"
       id="path4498"
       d="m 290.37686,503.78122 -34.54923,15.16035 -41.60007,-0.60642 -26.08819,-13.3411 -19.7424,27.89504 33.84412,18.19241 64.16284,-0.60641 39.48482,-23.65014 z"
       style="fill:none;stroke:#000000;stroke-width:1.07829213px;stroke-linecap:butt;stroke-linejoin:miter;stroke-opacity:1;display:inline" />
    <path
       sodipodi:nodetypes="cssccc"
       inkscape:connector-curvature="0"
       id="path4673"
       d="m 198.23114,510.14099 c 0.5723,-0.33699 -0.58162,0.40807 0.0217,0.11211 1.45412,-0.71331 2.9884,-1.30923 4.55504,-1.79622 7.96404,-2.47564 16.76445,-2.13653 20.12184,-0.0965 3.88469,5.18634 26.72864,2.03001 35.27615,-5.51087 4.60734,-3.70186 11.15736,3.85425 15.53117,7.53765"
       style="fill:none;stroke:#ff0000;stroke-width:0.35934544;stroke-linecap:butt;stroke-linejoin:miter;stroke-miterlimit:4;stroke-opacity:1;stroke-dasharray:none;stroke-dashoffset:0;display:inline" />
    <path
       inkscape:connector-curvature="0"
       id="path4440-5"
       d="m 174.87196,534.41925 14.2735,-13.35525 c 1.17025,-4.66992 4.49065,-8.08821 8.70667,-10.4682"
       style="fill:none;stroke:#000000;stroke-width:0.36700001;stroke-linecap:butt;stroke-linejoin:miter;stroke-miterlimit:4;stroke-opacity:1;stroke-dasharray:1.46800005, 1.46800005;stroke-dashoffset:0;display:inline" />
    <path
       sodipodi:type="arc"
       style="fill:#000000;fill-opacity:1;fill-rule:nonzero;stroke:#9b9b9b;stroke-opacity:1;display:inline"
       id="path4308-4-11-6-1-0-4-9"
       sodipodi:cx="151.77542"
       sodipodi:cy="662.4433"
       sodipodi:rx="3.7880721"
       sodipodi:ry="3.5355339"
       d="m 155.56349,662.4433 c 0,1.95262 -1.69597,3.53553 -3.78807,3.53553 -2.09209,0 -3.78807,-1.58291 -3.78807,-3.53553 0,-1.95262 1.69598,-3.53554 3.78807,-3.53554 2.0921,0 3.78807,1.58292 3.78807,3.53554 z"
       transform="matrix(0.42974039,0,0,0.31299703,208.989,303.64651)" />
    <path
       sodipodi:type="arc"
       style="fill:#000000;fill-opacity:1;fill-rule:nonzero;stroke:#9b9b9b;stroke-opacity:1;display:inline"
       id="path4308-4-11-6-1-0-4-9-4"
       sodipodi:cx="151.77542"
       sodipodi:cy="662.4433"
       sodipodi:rx="3.7880721"
       sodipodi:ry="3.5355339"
       d="m 155.56349,662.4433 c 0,1.95262 -1.69597,3.53553 -3.78807,3.53553 -2.09209,0 -3.78807,-1.58291 -3.78807,-3.53553 0,-1.95262 1.69598,-3.53554 3.78807,-3.53554 2.0921,0 3.78807,1.58292 3.78807,3.53554 z"
       transform="matrix(0.42974039,0,0,0.31299703,228.78365,326.45168)" />
    <path
       sodipodi:nodetypes="cc"
       inkscape:connector-curvature="0"
       id="path4682"
       d="m 273.90983,510.4717 20.22345,23.44837"
       style="fill:none;stroke:#000000;stroke-width:0.36700001;stroke-linecap:butt;stroke-linejoin:miter;stroke-miterlimit:4;stroke-opacity:1;stroke-dasharray:0.73400003, 1.46800005;stroke-dashoffset:0;display:inline" />
    <path
       transform="matrix(0.42974039,0,0,0.31299703,133.18479,302.71496)"
       d="m 155.56349,662.4433 c 0,1.95262 -1.69597,3.53553 -3.78807,3.53553 -2.09209,0 -3.78807,-1.58291 -3.78807,-3.53553 0,-1.95262 1.69598,-3.53554 3.78807,-3.53554 2.0921,0 3.78807,1.58292 3.78807,3.53554 z"
       sodipodi:ry="3.5355339"
       sodipodi:rx="3.7880721"
       sodipodi:cy="662.4433"
       sodipodi:cx="151.77542"
       id="path4308-4-11-6-1"
       style="fill:#000000;fill-opacity:1;fill-rule:nonzero;stroke:#9b9b9b;stroke-opacity:1;display:inline"
       sodipodi:type="arc" />
    <path
       transform="matrix(0.42974039,0,0,0.31299703,108.22286,327.91285)"
       d="m 155.56349,662.4433 c 0,1.95262 -1.69597,3.53553 -3.78807,3.53553 -2.09209,0 -3.78807,-1.58291 -3.78807,-3.53553 0,-1.95262 1.69598,-3.53554 3.78807,-3.53554 2.0921,0 3.78807,1.58292 3.78807,3.53554 z"
       sodipodi:ry="3.5355339"
       sodipodi:rx="3.7880721"
       sodipodi:cy="662.4433"
       sodipodi:cx="151.77542"
       id="path4308-4-11"
       style="fill:#000000;fill-opacity:1;fill-rule:nonzero;stroke:#9b9b9b;stroke-opacity:1;display:inline"
       sodipodi:type="arc" />
    <path
       transform="matrix(0.42974039,0,0,0.31299703,219.36314,315.04757)"
       d="m 155.56349,662.4433 c 0,1.95262 -1.69597,3.53553 -3.78807,3.53553 -2.09209,0 -3.78807,-1.58291 -3.78807,-3.53553 0,-1.95262 1.69598,-3.53554 3.78807,-3.53554 2.0921,0 3.78807,1.58292 3.78807,3.53554 z"
       sodipodi:ry="3.5355339"
       sodipodi:rx="3.7880721"
       sodipodi:cy="662.4433"
       sodipodi:cx="151.77542"
       id="path4308-4-11-2"
       style="fill:#000000;fill-opacity:1;fill-rule:nonzero;stroke:#9b9b9b;stroke-opacity:1;display:inline"
       sodipodi:type="arc" />
  </g>
</svg>
