<?xml version="1.0" encoding="UTF-8" standalone="no"?>
<!-- Created with Inkscape (http://www.inkscape.org/) -->

<svg
   xmlns:dc="http://purl.org/dc/elements/1.1/"
   xmlns:cc="http://creativecommons.org/ns#"
   xmlns:rdf="http://www.w3.org/1999/02/22-rdf-syntax-ns#"
   xmlns:svg="http://www.w3.org/2000/svg"
   xmlns="http://www.w3.org/2000/svg"
   xmlns:sodipodi="http://sodipodi.sourceforge.net/DTD/sodipodi-0.dtd"
   xmlns:inkscape="http://www.inkscape.org/namespaces/inkscape"
   width="210mm"
   height="297mm"
   id="svg2"
   version="1.1"
   inkscape:version="0.47pre4 "
   sodipodi:docname="Neues Dokument 1">
  <defs
     id="defs4">
    <inkscape:perspective
       sodipodi:type="inkscape:persp3d"
       inkscape:vp_x="0 : 526.18109 : 1"
       inkscape:vp_y="0 : 1000 : 0"
       inkscape:vp_z="744.09448 : 526.18109 : 1"
       inkscape:persp3d-origin="372.04724 : 350.78739 : 1"
       id="perspective10" />
    <inkscape:perspective
       id="perspective3625"
       inkscape:persp3d-origin="0.5 : 0.33333333 : 1"
       inkscape:vp_z="1 : 0.5 : 1"
       inkscape:vp_y="0 : 1000 : 0"
       inkscape:vp_x="0 : 0.5 : 1"
       sodipodi:type="inkscape:persp3d" />
    <inkscape:perspective
       id="perspective3647"
       inkscape:persp3d-origin="0.5 : 0.33333333 : 1"
       inkscape:vp_z="1 : 0.5 : 1"
       inkscape:vp_y="0 : 1000 : 0"
       inkscape:vp_x="0 : 0.5 : 1"
       sodipodi:type="inkscape:persp3d" />
    <inkscape:perspective
       id="perspective3647-4"
       inkscape:persp3d-origin="0.5 : 0.33333333 : 1"
       inkscape:vp_z="1 : 0.5 : 1"
       inkscape:vp_y="0 : 1000 : 0"
       inkscape:vp_x="0 : 0.5 : 1"
       sodipodi:type="inkscape:persp3d" />
    <inkscape:perspective
       id="perspective3678"
       inkscape:persp3d-origin="0.5 : 0.33333333 : 1"
       inkscape:vp_z="1 : 0.5 : 1"
       inkscape:vp_y="0 : 1000 : 0"
       inkscape:vp_x="0 : 0.5 : 1"
       sodipodi:type="inkscape:persp3d" />
    <inkscape:perspective
       id="perspective3700"
       inkscape:persp3d-origin="0.5 : 0.33333333 : 1"
       inkscape:vp_z="1 : 0.5 : 1"
       inkscape:vp_y="0 : 1000 : 0"
       inkscape:vp_x="0 : 0.5 : 1"
       sodipodi:type="inkscape:persp3d" />
    <inkscape:perspective
       id="perspective3722"
       inkscape:persp3d-origin="0.5 : 0.33333333 : 1"
       inkscape:vp_z="1 : 0.5 : 1"
       inkscape:vp_y="0 : 1000 : 0"
       inkscape:vp_x="0 : 0.5 : 1"
       sodipodi:type="inkscape:persp3d" />
    <inkscape:perspective
       id="perspective3744"
       inkscape:persp3d-origin="0.5 : 0.33333333 : 1"
       inkscape:vp_z="1 : 0.5 : 1"
       inkscape:vp_y="0 : 1000 : 0"
       inkscape:vp_x="0 : 0.5 : 1"
       sodipodi:type="inkscape:persp3d" />
    <inkscape:perspective
       id="perspective3766"
       inkscape:persp3d-origin="0.5 : 0.33333333 : 1"
       inkscape:vp_z="1 : 0.5 : 1"
       inkscape:vp_y="0 : 1000 : 0"
       inkscape:vp_x="0 : 0.5 : 1"
       sodipodi:type="inkscape:persp3d" />
    <inkscape:perspective
       id="perspective3788"
       inkscape:persp3d-origin="0.5 : 0.33333333 : 1"
       inkscape:vp_z="1 : 0.5 : 1"
       inkscape:vp_y="0 : 1000 : 0"
       inkscape:vp_x="0 : 0.5 : 1"
       sodipodi:type="inkscape:persp3d" />
    <inkscape:perspective
       id="perspective4321"
       inkscape:persp3d-origin="0.5 : 0.33333333 : 1"
       inkscape:vp_z="1 : 0.5 : 1"
       inkscape:vp_y="0 : 1000 : 0"
       inkscape:vp_x="0 : 0.5 : 1"
       sodipodi:type="inkscape:persp3d" />
    <inkscape:perspective
       id="perspective4355"
       inkscape:persp3d-origin="0.5 : 0.33333333 : 1"
       inkscape:vp_z="1 : 0.5 : 1"
       inkscape:vp_y="0 : 1000 : 0"
       inkscape:vp_x="0 : 0.5 : 1"
       sodipodi:type="inkscape:persp3d" />
    <inkscape:perspective
       id="perspective4386"
       inkscape:persp3d-origin="0.5 : 0.33333333 : 1"
       inkscape:vp_z="1 : 0.5 : 1"
       inkscape:vp_y="0 : 1000 : 0"
       inkscape:vp_x="0 : 0.5 : 1"
       sodipodi:type="inkscape:persp3d" />
    <inkscape:perspective
       id="perspective4432"
       inkscape:persp3d-origin="0.5 : 0.33333333 : 1"
       inkscape:vp_z="1 : 0.5 : 1"
       inkscape:vp_y="0 : 1000 : 0"
       inkscape:vp_x="0 : 0.5 : 1"
       sodipodi:type="inkscape:persp3d" />
  </defs>
  <sodipodi:namedview
     id="base"
     pagecolor="#ffffff"
     bordercolor="#666666"
     borderopacity="1.0"
     inkscape:pageopacity="0.0"
     inkscape:pageshadow="2"
     inkscape:zoom="1.979899"
     inkscape:cx="332.27073"
     inkscape:cy="731.0069"
     inkscape:document-units="px"
     inkscape:current-layer="layer1"
     showgrid="false"
     inkscape:window-width="1680"
     inkscape:window-height="998"
     inkscape:window-x="1672"
     inkscape:window-y="-8"
     inkscape:window-maximized="1" />
  <metadata
     id="metadata7">
    <rdf:RDF>
      <cc:Work
         rdf:about="">
        <dc:format>image/svg+xml</dc:format>
        <dc:type
           rdf:resource="http://purl.org/dc/dcmitype/StillImage" />
        <dc:title></dc:title>
      </cc:Work>
    </rdf:RDF>
  </metadata>
  <g
     inkscape:label="Ebene 1"
     inkscape:groupmode="layer"
     id="layer1">
    <rect
       style="fill:none;fill-opacity:1;stroke:#000000;stroke-width:1;stroke-miterlimit:4;stroke-opacity:1;stroke-dasharray:none;stroke-dashoffset:0"
       id="rect2816"
       width="194.28572"
       height="200"
       x="54.285713"
       y="166.6479" />
    <path
       sodipodi:type="arc"
       style="fill:#b4b4b4;fill-opacity:1;stroke:#000000;stroke-width:1;stroke-miterlimit:4;stroke-opacity:1;stroke-dasharray:none;stroke-dashoffset:0"
       id="path3615"
       sodipodi:cx="171.78572"
       sodipodi:cy="486.29074"
       sodipodi:rx="4.6428571"
       sodipodi:ry="4.6428571"
       d="m 176.42858,486.29074 a 4.6428571,4.6428571 0 1 1 -9.28572,0 4.6428571,4.6428571 0 1 1 9.28572,0 z"
       transform="translate(-104.04571,-319.5798)" />
    <path
       sodipodi:type="arc"
       style="fill:#b4b4b4;fill-opacity:1;stroke:#000000;stroke-width:1;stroke-miterlimit:4;stroke-opacity:1;stroke-dasharray:none;stroke-dashoffset:0"
       id="path3615-1"
       sodipodi:cx="171.78572"
       sodipodi:cy="486.29074"
       sodipodi:rx="4.6428571"
       sodipodi:ry="4.6428571"
       d="m 176.42858,486.29074 a 4.6428571,4.6428571 0 1 1 -9.28572,0 4.6428571,4.6428571 0 1 1 9.28572,0 z"
       transform="translate(-83.345052,-319.5798)" />
    <path
       sodipodi:type="arc"
       style="fill:#b4b4b4;fill-opacity:1;stroke:#000000;stroke-width:1;stroke-miterlimit:4;stroke-opacity:1;stroke-dasharray:none;stroke-dashoffset:0"
       id="path3615-1-7"
       sodipodi:cx="171.78572"
       sodipodi:cy="486.29074"
       sodipodi:rx="4.6428571"
       sodipodi:ry="4.6428571"
       d="m 176.42858,486.29074 a 4.6428571,4.6428571 0 1 1 -9.28572,0 4.6428571,4.6428571 0 1 1 9.28572,0 z"
       transform="translate(-62.6444,-319.5798)" />
    <path
       sodipodi:type="arc"
       style="fill:#b4b4b4;fill-opacity:1;stroke:#000000;stroke-width:1;stroke-miterlimit:4;stroke-opacity:1;stroke-dasharray:none;stroke-dashoffset:0"
       id="path3615-1-0"
       sodipodi:cx="171.78572"
       sodipodi:cy="486.29074"
       sodipodi:rx="4.6428571"
       sodipodi:ry="4.6428571"
       d="m 176.42858,486.29074 a 4.6428571,4.6428571 0 1 1 -9.28572,0 4.6428571,4.6428571 0 1 1 9.28572,0 z"
       transform="translate(-41.943744,-319.5798)" />
    <path
       sodipodi:type="arc"
       style="fill:#b4b4b4;fill-opacity:1;stroke:#000000;stroke-width:1;stroke-miterlimit:4;stroke-opacity:1;stroke-dasharray:none;stroke-dashoffset:0"
       id="path3615-1-0-9"
       sodipodi:cx="171.78572"
       sodipodi:cy="486.29074"
       sodipodi:rx="4.6428571"
       sodipodi:ry="4.6428571"
       d="m 176.42858,486.29074 a 4.6428571,4.6428571 0 1 1 -9.28572,0 4.6428571,4.6428571 0 1 1 9.28572,0 z"
       transform="translate(-21.243098,-319.5798)" />
    <path
       sodipodi:type="arc"
       style="fill:#b4b4b4;fill-opacity:1;stroke:#000000;stroke-width:1;stroke-miterlimit:4;stroke-opacity:1;stroke-dasharray:none;stroke-dashoffset:0"
       id="path3615-1-0-9-4"
       sodipodi:cx="171.78572"
       sodipodi:cy="486.29074"
       sodipodi:rx="4.6428571"
       sodipodi:ry="4.6428571"
       d="m 176.42858,486.29074 a 4.6428571,4.6428571 0 1 1 -9.28572,0 4.6428571,4.6428571 0 1 1 9.28572,0 z"
       transform="translate(-0.54244852,-319.5798)" />
    <path
       sodipodi:type="arc"
       style="fill:#b4b4b4;fill-opacity:1;stroke:#000000;stroke-width:1;stroke-miterlimit:4;stroke-opacity:1;stroke-dasharray:none;stroke-dashoffset:0"
       id="path3615-1-0-9-4-8"
       sodipodi:cx="171.78572"
       sodipodi:cy="486.29074"
       sodipodi:rx="4.6428571"
       sodipodi:ry="4.6428571"
       d="m 176.42858,486.29074 a 4.6428571,4.6428571 0 1 1 -9.28572,0 4.6428571,4.6428571 0 1 1 9.28572,0 z"
       transform="translate(20.158217,-319.5798)" />
    <path
       sodipodi:type="arc"
       style="fill:#b4b4b4;fill-opacity:1;stroke:#000000;stroke-width:1;stroke-miterlimit:4;stroke-opacity:1;stroke-dasharray:none;stroke-dashoffset:0"
       id="path3615-1-0-9-4-8-8"
       sodipodi:cx="171.78572"
       sodipodi:cy="486.29074"
       sodipodi:rx="4.6428571"
       sodipodi:ry="4.6428571"
       d="m 176.42858,486.29074 a 4.6428571,4.6428571 0 1 1 -9.28572,0 4.6428571,4.6428571 0 1 1 9.28572,0 z"
       transform="translate(40.85886,-319.5798)" />
    <path
       sodipodi:type="arc"
       style="fill:#b4b4b4;fill-opacity:1;stroke:#000000;stroke-width:1;stroke-miterlimit:4;stroke-opacity:1;stroke-dasharray:none;stroke-dashoffset:0"
       id="path3615-1-0-9-4-8-8-2"
       sodipodi:cx="171.78572"
       sodipodi:cy="486.29074"
       sodipodi:rx="4.6428571"
       sodipodi:ry="4.6428571"
       d="m 176.42858,486.29074 a 4.6428571,4.6428571 0 1 1 -9.28572,0 4.6428571,4.6428571 0 1 1 9.28572,0 z"
       transform="translate(61.55951,-319.5798)" />
    <path
       sodipodi:type="arc"
       style="fill:#b4b4b4;fill-opacity:1;stroke:#000000;stroke-width:1;stroke-miterlimit:4;stroke-opacity:1;stroke-dasharray:none;stroke-dashoffset:0"
       id="path3615-4"
       sodipodi:cx="171.78572"
       sodipodi:cy="486.29074"
       sodipodi:rx="4.6428571"
       sodipodi:ry="4.6428571"
       d="m 176.42858,486.29074 a 4.6428571,4.6428571 0 1 1 -9.28572,0 4.6428571,4.6428571 0 1 1 9.28572,0 z"
       transform="translate(-99.529913,-119.82213)" />
    <path
       sodipodi:type="arc"
       style="fill:#b4b4b4;fill-opacity:1;stroke:#000000;stroke-width:1;stroke-miterlimit:4;stroke-opacity:1;stroke-dasharray:none;stroke-dashoffset:0"
       id="path3615-1-7-5"
       sodipodi:cx="171.78572"
       sodipodi:cy="486.29074"
       sodipodi:rx="4.6428571"
       sodipodi:ry="4.6428571"
       d="m 176.42858,486.29074 a 4.6428571,4.6428571 0 1 1 -9.28572,0 4.6428571,4.6428571 0 1 1 9.28572,0 z"
       transform="translate(-58.128603,-119.82213)" />
    <path
       sodipodi:type="arc"
       style="fill:#b4b4b4;fill-opacity:1;stroke:#000000;stroke-width:1;stroke-miterlimit:4;stroke-opacity:1;stroke-dasharray:none;stroke-dashoffset:0"
       id="path3615-1-0-9-7"
       sodipodi:cx="171.78572"
       sodipodi:cy="486.29074"
       sodipodi:rx="4.6428571"
       sodipodi:ry="4.6428571"
       d="m 176.42858,486.29074 a 4.6428571,4.6428571 0 1 1 -9.28572,0 4.6428571,4.6428571 0 1 1 9.28572,0 z"
       transform="translate(-16.727301,-119.82213)" />
    <path
       sodipodi:type="arc"
       style="fill:#b4b4b4;fill-opacity:1;stroke:#000000;stroke-width:1;stroke-miterlimit:4;stroke-opacity:1;stroke-dasharray:none;stroke-dashoffset:0"
       id="path3615-1-0-9-4-8-1"
       sodipodi:cx="171.78572"
       sodipodi:cy="486.29074"
       sodipodi:rx="4.6428571"
       sodipodi:ry="4.6428571"
       d="m 176.42858,486.29074 a 4.6428571,4.6428571 0 1 1 -9.28572,0 4.6428571,4.6428571 0 1 1 9.28572,0 z"
       transform="translate(24.674009,-119.82213)" />
    <path
       sodipodi:type="arc"
       style="fill:#b4b4b4;fill-opacity:1;stroke:#000000;stroke-width:1;stroke-miterlimit:4;stroke-opacity:1;stroke-dasharray:none;stroke-dashoffset:0"
       id="path3615-1-0-9-4-8-8-2-2"
       sodipodi:cx="171.78572"
       sodipodi:cy="486.29074"
       sodipodi:rx="4.6428571"
       sodipodi:ry="4.6428571"
       d="m 176.42858,486.29074 a 4.6428571,4.6428571 0 1 1 -9.28572,0 4.6428571,4.6428571 0 1 1 9.28572,0 z"
       transform="translate(66.075299,-119.82213)" />
    <path
       style="fill:none;stroke:#000000;stroke-width:1.14224815px;stroke-linecap:butt;stroke-linejoin:miter;stroke-opacity:1"
       d="m 331.39451,273.31158 c 0,0 71.22685,-129.61827 158.97008,2.57948"
       id="path4311"
       sodipodi:nodetypes="cs" />
    <path
       style="fill:none;stroke:#000000;stroke-width:0.90610003px;stroke-linecap:butt;stroke-linejoin:miter;stroke-opacity:1"
       d="m 349.2349,323.54134 c 0,0 54.73371,-106.14179 122.1593,2.11228"
       id="path4311-7"
       sodipodi:nodetypes="cs" />
    <path
       style="fill:none;stroke:#000000;stroke-width:1px;stroke-linecap:butt;stroke-linejoin:miter;stroke-opacity:1"
       d="m 331.83511,272.52442 17.67767,50.00255"
       id="path4335" />
    <path
       style="fill:none;stroke:#000000;stroke-width:1px;stroke-linecap:butt;stroke-linejoin:miter;stroke-opacity:1"
       d="m 470.73109,325.55743 19.19289,-51.01271"
       id="path4337" />
    <path
       style="fill:#ececec;stroke:none"
       d="m 55.185886,266.65552 0,-99.24749 3.548035,0 c 3.267378,0 3.584016,0.0946 4.002892,1.19636 1.312111,3.45112 6.047014,4.4763 8.650366,1.87295 0.812007,-0.81201 1.476377,-1.83478 1.476377,-2.27284 0,-0.67227 0.78953,-0.79647 5.063264,-0.79647 4.86122,0 5.081414,0.0477 5.51812,1.19636 1.312112,3.45112 6.047014,4.4763 8.650366,1.87295 0.812007,-0.81201 1.476377,-1.83478 1.476377,-2.27284 0,-0.67227 0.78953,-0.79647 5.063264,-0.79647 4.861223,0 5.081413,0.0477 5.518123,1.19636 1.31211,3.45112 6.04701,4.4763 8.65036,1.87295 0.81201,-0.81201 1.47638,-1.83478 1.47638,-2.27284 0,-0.67189 0.78629,-0.79647 5.02706,-0.79647 l 5.02707,0 0.80565,1.69779 c 1.51324,3.1889 5.84496,3.89854 8.37197,1.37152 0.81201,-0.81201 1.47638,-1.83478 1.47638,-2.27284 0,-0.67189 0.78629,-0.79647 5.02706,-0.79647 l 5.02707,0 0.80565,1.69779 c 1.51324,3.1889 5.84495,3.89854 8.37197,1.37152 0.81201,-0.81201 1.47637,-1.83478 1.47637,-2.27284 0,-0.67227 0.78953,-0.79647 5.06327,-0.79647 4.88214,0 5.07978,0.0434 5.5249,1.21419 1.36636,3.59382 5.92623,4.57247 8.64358,1.85512 0.81201,-0.81201 1.47638,-1.83478 1.47638,-2.27284 0,-0.67227 0.78953,-0.79647 5.06327,-0.79647 4.88214,0 5.07977,0.0434 5.52489,1.21419 1.36637,3.59382 5.92624,4.57247 8.64359,1.85512 0.81201,-0.81201 1.47638,-1.83478 1.47638,-2.27284 0,-0.67227 0.78953,-0.79647 5.06326,-0.79647 4.88215,0 5.07978,0.0434 5.5249,1.21419 1.36637,3.59382 5.92624,4.57247 8.64359,1.85512 0.81201,-0.81201 1.47638,-1.83478 1.47638,-2.27284 0,-0.67227 0.78953,-0.79647 5.06326,-0.79647 4.88214,0 5.07978,0.0434 5.5249,1.21419 1.36637,3.59382 5.92623,4.57247 8.64359,1.85512 0.81201,-0.81201 1.47637,-1.83478 1.47637,-2.27284 0,-0.66624 0.74324,-0.79647 4.54569,-0.79647 l 4.54569,0 0,99.24749 0,99.24749 -2.16211,0 c -1.92089,0 -2.22367,-0.16307 -2.7138,-1.46157 -1.58997,-4.21234 -8.02338,-4.27353 -9.7551,-0.0928 l -0.64383,1.55435 -15.23282,0 -15.23282,0 -0.55168,-1.46157 c -1.58677,-4.20384 -8.04431,-4.22301 -9.78151,-0.029 l -0.61743,1.49061 -15.23282,0 -15.23281,0 -0.55169,-1.46157 c -1.5855,-4.20048 -8.24517,-4.21443 -9.70724,-0.0204 l -0.51659,1.4819 -15.32037,0 -15.32037,0 -0.55168,-1.46156 c -1.58551,-4.20049 -8.24517,-4.21444 -9.70724,-0.0204 l -0.5166,1.48194 -15.431097,0 c -13.306916,0 -15.431101,-0.10319 -15.431101,-0.74965 0,-0.41231 -0.625031,-1.44874 -1.388959,-2.30319 -1.110895,-1.24253 -1.804365,-1.55919 -3.463942,-1.58175 -2.520957,-0.0342 -4.491247,1.16385 -5.184559,3.15268 l -0.516594,1.48191 -5.83465,0 -5.834652,0 0,-99.24749 z"
       id="path4339" />
    <path
       style="fill:#ececec;stroke:none"
       d="m 467.58195,318.55713 c -7.90499,-11.91679 -19.96621,-25.19949 -28.50636,-31.3933 -5.1407,-3.72833 -13.05214,-7.71034 -18.21448,-9.16776 -4.90874,-1.38583 -14.41051,-1.87402 -19.37173,-0.99529 -17.30082,3.06431 -35.48663,17.93932 -49.59111,40.56285 l -2.13899,3.43093 -0.57296,-1.66317 c -0.31513,-0.91474 -4.13605,-11.74967 -8.49093,-24.07761 l -7.91796,-22.41444 1.18825,-2.08176 c 3.92216,-6.87148 12.42029,-17.69288 20.20438,-25.72799 29.53235,-30.48472 61.34255,-35.83496 91.80646,-15.44118 13.13629,8.79398 27.17548,23.29082 39.30192,40.58307 l 3.55564,5.07034 -8.89685,23.60814 c -4.89327,12.98447 -9.01464,23.72591 -9.1586,23.86987 -0.14395,0.14396 -1.58246,-1.72926 -3.19668,-4.1627 z"
       id="path4341" />
    <path
       style="fill:#ececec;stroke:none"
       d="m 55.185886,266.65552 0,-99.24749 1.641498,0.006 c 3.652471,0.0124 5.455098,0.59905 6.186512,2.01345 1.466687,2.83626 6.375795,3.28672 8.684498,0.79688 0.640839,-0.69111 1.165162,-1.46212 1.165162,-1.71334 0,-0.65314 4.597971,-1.10858 7.601082,-0.75291 2.109892,0.24989 2.672735,0.53878 3.259177,1.67283 1.465009,2.83302 6.375421,3.28173 8.682706,0.79342 0.640839,-0.69111 1.165162,-1.46442 1.165162,-1.71845 0,-0.64764 5.352505,-1.10261 8.074757,-0.68636 1.76892,0.27047 2.40588,0.63775 2.90193,1.67329 1.33008,2.7766 6.27816,3.19915 8.56628,0.73152 0.64084,-0.69111 1.16516,-1.46212 1.16516,-1.71334 0,-0.50914 4.05356,-1.09142 7.64487,-1.09816 2.1553,-0.004 2.40461,0.12848 3.1342,1.66598 1.05118,2.2152 2.7748,3.08723 5.40486,2.73446 2.07361,-0.27813 4.5242,-1.98969 4.5242,-3.15983 0,-0.63685 3.67274,-1.23316 7.64113,-1.24061 2.1146,-0.004 2.3968,0.13795 2.95527,1.48622 0.92457,2.23211 2.75494,3.21866 5.41532,2.91879 2.22134,-0.25037 4.6964,-1.92075 4.6964,-3.16951 0,-0.77317 5.04758,-1.29343 8.04125,-0.82881 1.77961,0.27619 2.40217,0.65412 3.06686,1.86177 1.05122,1.9099 3.62855,2.86048 5.79661,2.13793 1.76029,-0.58666 3.80341,-2.28725 3.80341,-3.16578 0,-0.77426 4.3042,-1.28582 7.56714,-0.89938 2.17172,0.25721 2.65182,0.52761 3.50536,1.97425 1.68721,2.8596 5.6637,3.11814 8.49921,0.55258 0.62503,-0.56552 1.13642,-1.29788 1.13642,-1.62745 0,-0.77426 4.30419,-1.28582 7.56713,-0.89938 2.17173,0.25721 2.65183,0.52761 3.50537,1.97425 1.68721,2.8596 5.6637,3.11814 8.4992,0.55258 0.62504,-0.56552 1.13643,-1.29788 1.13643,-1.62745 0,-0.77426 4.30419,-1.28582 7.56713,-0.89938 2.17173,0.25721 2.65183,0.52761 3.50537,1.97425 1.6872,2.8596 5.6637,3.11814 8.4992,0.55258 0.62503,-0.56552 1.13642,-1.29864 1.13642,-1.62915 0,-0.64594 3.30994,-1.2433 6.88903,-1.2433 l 2.20235,0 0,99.24749 c 0,83.87327 -0.10758,99.24749 -0.69448,99.24749 -2.19287,0 -3.7634,-0.72512 -4.58575,-2.11726 -1.2017,-2.0343 -3.66975,-3.0484 -5.87782,-2.41513 -1.74453,0.50032 -3.99424,2.67067 -3.99424,3.85333 0,0.55356 -2.7927,0.67906 -15.1111,0.67906 l -15.11109,0 -1.09649,-1.77416 c -1.36451,-2.20782 -2.39214,-2.77153 -5.05246,-2.77153 -1.63917,0 -2.41213,0.31977 -3.56874,1.47638 -0.81201,0.81201 -1.47638,1.83479 -1.47638,2.27284 0,0.70752 -1.69064,0.79647 -15.13931,0.79647 l -15.13932,0 -0.7677,-1.48457 c -1.08088,-2.09018 -2.68793,-3.06112 -5.06662,-3.06112 -2.448,0 -3.92834,0.93036 -4.78989,3.01034 l -0.63596,1.53535 -15.07804,0 -15.07805,0 -0.7677,-1.48457 c -1.08087,-2.09018 -2.68792,-3.06112 -5.06661,-3.06112 -2.47383,0 -3.92913,0.93226 -4.82263,3.08936 l -0.66868,1.61436 -14.849828,-0.31626 -14.84982,-0.31627 -1.860685,-2.09673 c -1.65319,-1.86291 -2.103458,-2.09338 -4.03774,-2.06668 -2.637469,0.0364 -4.249815,1.00956 -5.108894,3.08356 l -0.643834,1.55435 -5.747101,0 -5.747102,0 0,-99.24749 z"
       id="path4343" />
    <path
       style="fill:#ececec;stroke:none"
       d="m 470.02801,322.07991 c -0.32072,-0.20409 -0.548,-0.52645 -0.50508,-0.71636 0.14402,-0.63722 -7.38563,-10.7072 -12.58231,-16.82731 -6.46441,-7.61309 -16.20155,-16.98601 -18.57526,-17.88044 -0.29596,-0.11152 -0.94538,-0.58218 -1.44313,-1.04591 -1.31276,-1.22302 -9.19887,-5.28815 -13.08341,-6.74424 -7.80472,-2.92553 -21.74131,-3.16653 -28.23153,-0.48819 -0.41668,0.17195 -0.87125,0.35191 -1.01015,0.39989 -3.62136,1.25106 -10.789,4.9469 -14.14609,7.29415 -2.94161,2.05674 -10.65157,8.85039 -14.18597,12.5 -4.25973,4.39857 -7.9055,9.06095 -12.67707,16.21198 l -3.8044,5.70154 -2.68734,-7.72185 c -1.47804,-4.24702 -2.9658,-8.40371 -3.30614,-9.23708 -0.34035,-0.83338 -0.66488,-1.74252 -0.72119,-2.02031 -0.26613,-1.31282 -2.69036,-7.64846 -3.14047,-8.20749 -0.27958,-0.34724 -0.37174,-0.63134 -0.20481,-0.63134 0.38303,0 -2.14025,-7.1037 -2.82565,-7.95495 -0.27958,-0.34724 -0.37362,-0.63135 -0.20898,-0.63135 0.16464,0 -0.60488,-2.52417 -1.71003,-5.60928 l -2.00938,-5.60928 1.73345,-2.85075 c 9.92431,-16.32106 28.25442,-34.88162 42.64717,-43.18336 10.75443,-6.20315 20.52954,-8.91232 32.15702,-8.91232 10.19404,0 18.3151,2.08763 28.31338,7.27834 9.79976,5.08764 17.60413,11.14567 27.48718,21.33652 5.91521,6.09942 11.56615,12.29632 11.21302,12.29632 -0.10747,0 0.7032,1.0796 1.80149,2.39911 1.09829,1.31951 3.85002,4.99438 6.11496,8.16637 3.12246,4.37293 4.03913,6.02141 3.79157,6.81853 -0.17957,0.5782 -2.92238,7.8698 -6.09514,16.20356 -3.17275,8.33376 -5.80477,15.55004 -5.84892,16.03617 -0.0441,0.48614 -0.23454,0.88389 -0.42311,0.88389 -0.32625,0 -1.12198,2.21051 -1.18179,3.28299 -0.0155,0.27779 -0.16411,0.61872 -0.33025,0.75762 -0.16615,0.13889 -1.04864,2.24127 -1.96109,4.67195 -0.91245,2.43068 -1.68565,4.41594 -1.71822,4.41169 -0.0326,-0.004 -0.32162,-0.17472 -0.64233,-0.37881 l 0,0 z"
       id="path4345" />
    <path
       sodipodi:type="arc"
       style="fill:#b4b4b4;fill-opacity:1;stroke:#000000;stroke-width:1;stroke-miterlimit:4;stroke-opacity:1;stroke-dasharray:none;stroke-dashoffset:0"
       id="path3615-3"
       sodipodi:cx="171.78572"
       sodipodi:cy="486.29074"
       sodipodi:rx="4.6428571"
       sodipodi:ry="4.6428571"
       d="m 176.42858,486.29074 a 4.6428571,4.6428571 0 1 1 -9.28572,0 4.6428571,4.6428571 0 1 1 9.28572,0 z"
       transform="translate(165.13005,-221.84754)" />
    <path
       sodipodi:type="arc"
       style="fill:#b4b4b4;fill-opacity:1;stroke:#000000;stroke-width:1;stroke-miterlimit:4;stroke-opacity:1;stroke-dasharray:none;stroke-dashoffset:0"
       id="path3615-1-2"
       sodipodi:cx="171.78572"
       sodipodi:cy="486.29074"
       sodipodi:rx="4.6428571"
       sodipodi:ry="4.6428571"
       d="m 176.42858,486.29074 a 4.6428571,4.6428571 0 1 1 -9.28572,0 4.6428571,4.6428571 0 1 1 9.28572,0 z"
       transform="translate(183.49471,-243.52521)" />
    <path
       sodipodi:type="arc"
       style="fill:#b4b4b4;fill-opacity:1;stroke:#000000;stroke-width:1;stroke-miterlimit:4;stroke-opacity:1;stroke-dasharray:none;stroke-dashoffset:0"
       id="path3615-1-7-2"
       sodipodi:cx="171.78572"
       sodipodi:cy="486.29074"
       sodipodi:rx="4.6428571"
       sodipodi:ry="4.6428571"
       d="m 176.42858,486.29074 a 4.6428571,4.6428571 0 1 1 -9.28572,0 4.6428571,4.6428571 0 1 1 9.28572,0 z"
       transform="translate(201.8594,-257.66735)" />
    <path
       sodipodi:type="arc"
       style="fill:#b4b4b4;fill-opacity:1;stroke:#000000;stroke-width:1;stroke-miterlimit:4;stroke-opacity:1;stroke-dasharray:none;stroke-dashoffset:0"
       id="path3615-1-0-1"
       sodipodi:cx="171.78572"
       sodipodi:cy="486.29074"
       sodipodi:rx="4.6428571"
       sodipodi:ry="4.6428571"
       d="m 176.42858,486.29074 a 4.6428571,4.6428571 0 1 1 -9.28572,0 4.6428571,4.6428571 0 1 1 9.28572,0 z"
       transform="translate(220.22407,-266.77902)" />
    <path
       sodipodi:type="arc"
       style="fill:#b4b4b4;fill-opacity:1;stroke:#000000;stroke-width:1;stroke-miterlimit:4;stroke-opacity:1;stroke-dasharray:none;stroke-dashoffset:0"
       id="path3615-1-0-9-6"
       sodipodi:cx="171.78572"
       sodipodi:cy="486.29074"
       sodipodi:rx="4.6428571"
       sodipodi:ry="4.6428571"
       d="m 176.42858,486.29074 a 4.6428571,4.6428571 0 1 1 -9.28572,0 4.6428571,4.6428571 0 1 1 9.28572,0 z"
       transform="translate(238.58875,-268.81963)" />
    <path
       sodipodi:type="arc"
       style="fill:#b4b4b4;fill-opacity:1;stroke:#000000;stroke-width:1;stroke-miterlimit:4;stroke-opacity:1;stroke-dasharray:none;stroke-dashoffset:0"
       id="path3615-1-0-9-4-85"
       sodipodi:cx="171.78572"
       sodipodi:cy="486.29074"
       sodipodi:rx="4.6428571"
       sodipodi:ry="4.6428571"
       d="m 176.42858,486.29074 a 4.6428571,4.6428571 0 1 1 -9.28572,0 4.6428571,4.6428571 0 1 1 9.28572,0 z"
       transform="translate(256.95342,-266.27395)" />
    <path
       sodipodi:type="arc"
       style="fill:#b4b4b4;fill-opacity:1;stroke:#000000;stroke-width:1;stroke-miterlimit:4;stroke-opacity:1;stroke-dasharray:none;stroke-dashoffset:0"
       id="path3615-1-0-9-4-8-7"
       sodipodi:cx="171.78572"
       sodipodi:cy="486.29074"
       sodipodi:rx="4.6428571"
       sodipodi:ry="4.6428571"
       d="m 176.42858,486.29074 a 4.6428571,4.6428571 0 1 1 -9.28572,0 4.6428571,4.6428571 0 1 1 9.28572,0 z"
       transform="translate(275.31809,-256.6775)" />
    <path
       sodipodi:type="arc"
       style="fill:#b4b4b4;fill-opacity:1;stroke:#000000;stroke-width:1;stroke-miterlimit:4;stroke-opacity:1;stroke-dasharray:none;stroke-dashoffset:0"
       id="path3615-1-0-9-4-8-8-6"
       sodipodi:cx="171.78572"
       sodipodi:cy="486.29074"
       sodipodi:rx="4.6428571"
       sodipodi:ry="4.6428571"
       d="m 176.42858,486.29074 a 4.6428571,4.6428571 0 1 1 -9.28572,0 4.6428571,4.6428571 0 1 1 9.28572,0 z"
       transform="translate(293.68277,-242.51506)" />
    <path
       sodipodi:type="arc"
       style="fill:#b4b4b4;fill-opacity:1;stroke:#000000;stroke-width:1;stroke-miterlimit:4;stroke-opacity:1;stroke-dasharray:none;stroke-dashoffset:0"
       id="path3615-1-0-9-4-8-8-2-1"
       sodipodi:cx="171.78572"
       sodipodi:cy="486.29074"
       sodipodi:rx="4.6428571"
       sodipodi:ry="4.6428571"
       d="m 176.42858,486.29074 a 4.6428571,4.6428571 0 1 1 -9.28572,0 4.6428571,4.6428571 0 1 1 9.28572,0 z"
       transform="translate(312.04745,-222.31201)" />
    <path
       sodipodi:type="arc"
       style="fill:#b4b4b4;fill-opacity:1;stroke:#000000;stroke-width:1;stroke-miterlimit:4;stroke-opacity:1;stroke-dasharray:none;stroke-dashoffset:0"
       id="path3615-4-8"
       sodipodi:cx="171.78572"
       sodipodi:cy="486.29074"
       sodipodi:rx="4.6428571"
       sodipodi:ry="4.6428571"
       d="m 176.42858,486.29074 a 4.6428571,4.6428571 0 1 1 -9.28572,0 4.6428571,4.6428571 0 1 1 9.28572,0 z"
       transform="translate(184.32296,-172.85515)" />
    <path
       sodipodi:type="arc"
       style="fill:#b4b4b4;fill-opacity:1;stroke:#000000;stroke-width:1;stroke-miterlimit:4;stroke-opacity:1;stroke-dasharray:none;stroke-dashoffset:0"
       id="path3615-1-7-5-9"
       sodipodi:cx="171.78572"
       sodipodi:cy="486.29074"
       sodipodi:rx="4.6428571"
       sodipodi:ry="4.6428571"
       d="m 176.42858,486.29074 a 4.6428571,4.6428571 0 1 1 -9.28572,0 4.6428571,4.6428571 0 1 1 9.28572,0 z"
       transform="translate(199.4603,-193.0582)" />
    <path
       sodipodi:type="arc"
       style="fill:#b4b4b4;fill-opacity:1;stroke:#000000;stroke-width:1;stroke-miterlimit:4;stroke-opacity:1;stroke-dasharray:none;stroke-dashoffset:0"
       id="path3615-1-0-9-7-2"
       sodipodi:cx="171.78572"
       sodipodi:cy="486.29074"
       sodipodi:rx="4.6428571"
       sodipodi:ry="4.6428571"
       d="m 176.42858,486.29074 a 4.6428571,4.6428571 0 1 1 -9.28572,0 4.6428571,4.6428571 0 1 1 9.28572,0 z"
       transform="translate(233.28546,-208.21049)" />
    <path
       sodipodi:type="arc"
       style="fill:#b4b4b4;fill-opacity:1;stroke:#000000;stroke-width:1;stroke-miterlimit:4;stroke-opacity:1;stroke-dasharray:none;stroke-dashoffset:0"
       id="path3615-1-0-9-4-8-1-7"
       sodipodi:cx="171.78572"
       sodipodi:cy="486.29074"
       sodipodi:rx="4.6428571"
       sodipodi:ry="4.6428571"
       d="m 176.42858,486.29074 a 4.6428571,4.6428571 0 1 1 -9.28572,0 4.6428571,4.6428571 0 1 1 9.28572,0 z"
       transform="translate(265.09032,-198.10896)" />
    <path
       sodipodi:type="arc"
       style="fill:#b4b4b4;fill-opacity:1;stroke:#000000;stroke-width:1;stroke-miterlimit:4;stroke-opacity:1;stroke-dasharray:none;stroke-dashoffset:0"
       id="path3615-1-0-9-4-8-8-2-2-9"
       sodipodi:cx="171.78572"
       sodipodi:cy="486.29074"
       sodipodi:rx="4.6428571"
       sodipodi:ry="4.6428571"
       d="m 176.42858,486.29074 a 4.6428571,4.6428571 0 1 1 -9.28572,0 4.6428571,4.6428571 0 1 1 9.28572,0 z"
       transform="translate(288.30886,-175.88561)" />
  </g>
</svg>
