<?xml version="1.0" encoding="UTF-8" standalone="no"?>
<!-- Created with Inkscape (http://www.inkscape.org/) -->

<svg
   xmlns:dc="http://purl.org/dc/elements/1.1/"
   xmlns:cc="http://creativecommons.org/ns#"
   xmlns:rdf="http://www.w3.org/1999/02/22-rdf-syntax-ns#"
   xmlns:svg="http://www.w3.org/2000/svg"
   xmlns="http://www.w3.org/2000/svg"
   xmlns:sodipodi="http://sodipodi.sourceforge.net/DTD/sodipodi-0.dtd"
   xmlns:inkscape="http://www.inkscape.org/namespaces/inkscape"
   width="901.27509"
   height="599.8562"
   id="svg2"
   version="1.1"
   inkscape:version="0.48.2 r9819"
   sodipodi:docname="splines_world_space.pdf">
  <defs
     id="defs4">
    <marker
       inkscape:stockid="TriangleInM"
       orient="auto"
       refY="0"
       refX="0"
       id="TriangleInM"
       style="overflow:visible">
      <path
         id="path4862"
         d="m 5.77,0 -8.65,5 0,-10 8.65,5 z"
         style="fill-rule:evenodd;stroke:#000000;stroke-width:1pt;marker-start:none"
         transform="scale(-0.4,-0.4)"
         inkscape:connector-curvature="0" />
    </marker>
    <marker
       inkscape:stockid="TriangleInL"
       orient="auto"
       refY="0"
       refX="0"
       id="TriangleInL"
       style="overflow:visible">
      <path
         id="path4859"
         d="m 5.77,0 -8.65,5 0,-10 8.65,5 z"
         style="fill-rule:evenodd;stroke:#000000;stroke-width:1pt;marker-start:none"
         transform="scale(-0.8,-0.8)"
         inkscape:connector-curvature="0" />
    </marker>
    <marker
       inkscape:stockid="Arrow2Sstart"
       orient="auto"
       refY="0"
       refX="0"
       id="Arrow2Sstart"
       style="overflow:visible">
      <path
         id="path4755"
         style="font-size:12px;fill-rule:evenodd;stroke-width:0.625;stroke-linejoin:round"
         d="M 8.7185878,4.0337352 -2.2072895,0.01601326 8.7185884,-4.0017078 c -1.7454984,2.3720609 -1.7354408,5.6174519 -6e-7,8.035443 z"
         transform="matrix(0.3,0,0,0.3,-0.69,0)"
         inkscape:connector-curvature="0" />
    </marker>
    <marker
       inkscape:stockid="DotM"
       orient="auto"
       refY="0"
       refX="0"
       id="DotM"
       style="overflow:visible">
      <path
         id="path4790"
         d="m -2.5,-1 c 0,2.76 -2.24,5 -5,5 -2.76,0 -5,-2.24 -5,-5 0,-2.76 2.24,-5 5,-5 2.76,0 5,2.24 5,5 z"
         style="fill-rule:evenodd;stroke:#000000;stroke-width:1pt;marker-start:none;marker-end:none"
         transform="matrix(0.4,0,0,0.4,2.96,0.4)"
         inkscape:connector-curvature="0" />
    </marker>
    <marker
       inkscape:stockid="TriangleInS"
       orient="auto"
       refY="0"
       refX="0"
       id="TriangleInS"
       style="overflow:visible">
      <path
         id="path3922"
         d="m 5.77,0 -8.65,5 0,-10 8.65,5 z"
         style="fill-rule:evenodd;stroke:#000000;stroke-width:1pt;marker-start:none"
         transform="scale(-0.2,-0.2)"
         inkscape:connector-curvature="0" />
    </marker>
    <marker
       inkscape:stockid="TriangleOutS"
       orient="auto"
       refY="0"
       refX="0"
       id="TriangleOutS"
       style="overflow:visible">
      <path
         id="path3931"
         d="m 5.77,0 -8.65,5 0,-10 8.65,5 z"
         style="fill-rule:evenodd;stroke:#000000;stroke-width:1pt;marker-start:none"
         transform="scale(0.2,0.2)"
         inkscape:connector-curvature="0" />
    </marker>
    <marker
       inkscape:stockid="TriangleOutM"
       orient="auto"
       refY="0"
       refX="0"
       id="TriangleOutM"
       style="overflow:visible">
      <path
         id="path3928"
         d="m 5.77,0 -8.65,5 0,-10 8.65,5 z"
         style="fill-rule:evenodd;stroke:#000000;stroke-width:1pt;marker-start:none"
         transform="scale(0.4,0.4)"
         inkscape:connector-curvature="0" />
    </marker>
    <marker
       inkscape:stockid="Arrow1Mend"
       orient="auto"
       refY="0"
       refX="0"
       id="Arrow1Mend"
       style="overflow:visible">
      <path
         id="path3791"
         d="M 0,0 5,-5 -12.5,0 5,5 0,0 z"
         style="fill-rule:evenodd;stroke:#000000;stroke-width:1pt;marker-start:none"
         transform="matrix(-0.4,0,0,-0.4,-4,0)"
         inkscape:connector-curvature="0" />
    </marker>
    <marker
       inkscape:stockid="Arrow1Mstart"
       orient="auto"
       refY="0"
       refX="0"
       id="Arrow1Mstart"
       style="overflow:visible">
      <path
         id="path3788"
         d="M 0,0 5,-5 -12.5,0 5,5 0,0 z"
         style="fill-rule:evenodd;stroke:#000000;stroke-width:1pt;marker-start:none"
         transform="matrix(0.4,0,0,0.4,4,0)"
         inkscape:connector-curvature="0" />
    </marker>
    <marker
       inkscape:stockid="Arrow1Lstart"
       orient="auto"
       refY="0"
       refX="0"
       id="Arrow1Lstart"
       style="overflow:visible">
      <path
         id="path3782"
         d="M 0,0 5,-5 -12.5,0 5,5 0,0 z"
         style="fill-rule:evenodd;stroke:#000000;stroke-width:1pt;marker-start:none"
         transform="matrix(0.8,0,0,0.8,10,0)"
         inkscape:connector-curvature="0" />
    </marker>
    <marker
       inkscape:stockid="Arrow2Send"
       orient="auto"
       refY="0"
       refX="0"
       id="Arrow2Send"
       style="overflow:visible">
      <path
         id="path3815"
         style="font-size:12px;fill-rule:evenodd;stroke-width:0.625;stroke-linejoin:round"
         d="M 8.7185878,4.0337352 -2.2072895,0.01601326 8.7185884,-4.0017078 c -1.7454984,2.3720609 -1.7354408,5.6174519 -6e-7,8.035443 z"
         transform="matrix(-0.3,0,0,-0.3,0.69,0)"
         inkscape:connector-curvature="0" />
    </marker>
    <marker
       inkscape:stockid="Arrow1Send"
       orient="auto"
       refY="0"
       refX="0"
       id="Arrow1Send"
       style="overflow:visible">
      <path
         id="path3797"
         d="M 0,0 5,-5 -12.5,0 5,5 0,0 z"
         style="fill-rule:evenodd;stroke:#000000;stroke-width:1pt;marker-start:none"
         transform="matrix(-0.2,0,0,-0.2,-1.2,0)"
         inkscape:connector-curvature="0" />
    </marker>
    <marker
       inkscape:stockid="DotS"
       orient="auto"
       refY="0"
       refX="0"
       id="DotS"
       style="overflow:visible">
      <path
         id="path3850"
         d="m -2.5,-1 c 0,2.76 -2.24,5 -5,5 -2.76,0 -5,-2.24 -5,-5 0,-2.76 2.24,-5 5,-5 2.76,0 5,2.24 5,5 z"
         style="fill-rule:evenodd;stroke:#000000;stroke-width:1pt;marker-start:none;marker-end:none"
         transform="matrix(0.2,0,0,0.2,1.48,0.2)"
         inkscape:connector-curvature="0" />
    </marker>
    <marker
       inkscape:stockid="DotL"
       orient="auto"
       refY="0"
       refX="0"
       id="DotL"
       style="overflow:visible">
      <path
         id="path3844"
         d="m -2.5,-1 c 0,2.76 -2.24,5 -5,5 -2.76,0 -5,-2.24 -5,-5 0,-2.76 2.24,-5 5,-5 2.76,0 5,2.24 5,5 z"
         style="fill-rule:evenodd;stroke:#000000;stroke-width:1pt;marker-start:none;marker-end:none"
         transform="matrix(0.8,0,0,0.8,5.92,0.8)"
         inkscape:connector-curvature="0" />
    </marker>
    <marker
       inkscape:stockid="Arrow2Mstart"
       orient="auto"
       refY="0"
       refX="0"
       id="Arrow2Mstart"
       style="overflow:visible">
      <path
         id="path4260"
         style="font-size:12px;fill-rule:evenodd;stroke-width:0.625;stroke-linejoin:round"
         d="M 8.7185878,4.0337352 -2.2072895,0.01601326 8.7185884,-4.0017078 c -1.7454984,2.3720609 -1.7354408,5.6174519 -6e-7,8.035443 z"
         transform="scale(0.6,0.6)"
         inkscape:connector-curvature="0" />
    </marker>
  </defs>
  <sodipodi:namedview
     id="base"
     pagecolor="#ffffff"
     bordercolor="#666666"
     borderopacity="1.0"
     inkscape:pageopacity="0.0"
     inkscape:pageshadow="2"
     inkscape:zoom="1"
     inkscape:cx="543.78856"
     inkscape:cy="180.92381"
     inkscape:document-units="px"
     inkscape:current-layer="layer1"
     showgrid="false"
     inkscape:window-width="1920"
     inkscape:window-height="1018"
     inkscape:window-x="-8"
     inkscape:window-y="584"
     inkscape:window-maximized="1"
     inkscape:snap-bbox="false"
     inkscape:bbox-nodes="false"
     inkscape:bbox-paths="false"
     inkscape:object-paths="false"
     inkscape:snap-nodes="false"
     inkscape:object-nodes="false"
     fit-margin-top="0"
     fit-margin-left="0"
     fit-margin-right="0"
     fit-margin-bottom="0" />
  <metadata
     id="metadata7">
    <rdf:RDF>
      <cc:Work
         rdf:about="">
        <dc:format>image/svg+xml</dc:format>
        <dc:type
           rdf:resource="http://purl.org/dc/dcmitype/StillImage" />
        <dc:title></dc:title>
      </cc:Work>
    </rdf:RDF>
  </metadata>
  <g
     inkscape:label="Layer 1"
     inkscape:groupmode="layer"
     id="layer1"
     transform="translate(-21.311271,-256.60692)">
    <path
       style="fill:none;stroke:#000000;stroke-width:2.5;stroke-linecap:butt;stroke-linejoin:miter;stroke-miterlimit:8.36666679;stroke-opacity:1;stroke-dasharray:none;marker-start:url(#DotM)"
       d="m 37.61781,312.05812 36.80822,45.88301 70.13638,86.20011 88.33971,111.31802 89.94589,110.74716 64.85989,80.00011"
       id="path2996"
       inkscape:connector-curvature="0"
       sodipodi:nodetypes="cccccc" />
    <path
       style="fill:none;stroke:#000000;stroke-width:2.5;stroke-linecap:butt;stroke-linejoin:miter;stroke-miterlimit:8.36666679;stroke-opacity:1;stroke-dasharray:none;marker-start:url(#DotM)"
       d="M 125.12767,302.04396 387.69672,746.20344"
       id="path2998"
       inkscape:connector-curvature="0"
       sodipodi:nodetypes="cc" />
    <path
       style="fill:none;stroke:#000000;stroke-width:2.5;stroke-linecap:butt;stroke-linejoin:miter;stroke-miterlimit:8.36666679;stroke-opacity:1;stroke-dasharray:none;marker-start:url(#DotM)"
       d="M 192.08333,294.68412 387.76779,746.29584"
       id="path3000"
       inkscape:connector-curvature="0"
       sodipodi:nodetypes="cc" />
    <path
       style="fill:none;stroke:#000000;stroke-width:2.5;stroke-linecap:butt;stroke-linejoin:miter;stroke-miterlimit:8.36666679;stroke-opacity:1;stroke-dasharray:none;marker-start:url(#DotM)"
       d="m 333.02047,307.13444 54.61,438.42176"
       id="path3002"
       inkscape:connector-curvature="0" />
    <path
       style="fill:none;stroke:#000000;stroke-width:2.5;stroke-linecap:butt;stroke-linejoin:miter;stroke-miterlimit:8.36666679;stroke-opacity:1;stroke-dasharray:none;marker-start:url(#DotM);marker-end:url(#DotM)"
       d="m 380.67037,316.26823 6.9601,429.85883"
       id="path3004"
       inkscape:connector-curvature="0" />
    <path
       style="fill:none;stroke:#000000;stroke-width:2.5;stroke-linecap:butt;stroke-linejoin:miter;stroke-miterlimit:8.36666679;stroke-opacity:1;stroke-dasharray:none;marker-start:url(#DotM);marker-end:none"
       d="M 440.51718,328.23848 387.58906,746.13279"
       id="path3006"
       inkscape:connector-curvature="0"
       sodipodi:nodetypes="cc" />
    <path
       style="fill:none;stroke:#000000;stroke-width:2.5;stroke-linecap:butt;stroke-linejoin:miter;stroke-miterlimit:8.36666679;stroke-opacity:1;stroke-dasharray:none;marker-start:url(#DotM)"
       d="M 455.06504,296.06157 387.6168,746.07408"
       id="path3008"
       inkscape:connector-curvature="0"
       sodipodi:nodetypes="cc" />
    <path
       style="fill:none;stroke:#000000;stroke-width:2.5;stroke-linecap:butt;stroke-linejoin:miter;stroke-miterlimit:8.36666679;stroke-opacity:1;stroke-dasharray:none;marker-start:url(#DotM)"
       d="M 577.72691,279.63005 387.76809,745.97096"
       id="path3010"
       inkscape:connector-curvature="0"
       sodipodi:nodetypes="cc" />
    <path
       style="fill:none;stroke:#000000;stroke-width:2.5;stroke-linecap:butt;stroke-linejoin:miter;stroke-miterlimit:8.36666679;stroke-opacity:1;stroke-dasharray:none;marker-start:url(#DotM)"
       d="M 715.73894,262.31452 387.81354,745.89256"
       id="path3012"
       inkscape:connector-curvature="0"
       sodipodi:nodetypes="cc" />
    <path
       id="path3024"
       style="fill:none;stroke:#000000;stroke-width:1.5;stroke-linecap:butt;stroke-linejoin:miter;stroke-miterlimit:4;stroke-opacity:1;stroke-dasharray:none"
       d="m 477.23672,634.01339 c 29.87811,-116.44523 7.02635,-227.27661 -22.14683,-337.72532 m 253.48316,405.43849 c 31.21152,-146.93536 31.44248,-294.37232 6.99611,-439.786 M 27.13584,833.67494 c 441.1021,69.56426 535.97181,-39.64095 681.45491,-132.05448 0.12448,-0.42058 -0.12982,0.0542 -0.26035,-0.0206 L 477.29862,633.79846 C 384.5441,668.00954 287.33034,690.49789 174.76354,661.33448 M 715.76792,262.31893 C 548.37721,301.57043 451.47308,370.12158 58.36082,315.26159 51.49291,314.30314 44.67264,313.33372 37.62199,312.29895 11.79875,487.1611 25.44987,659.61281 27.43448,833.06305 L 174.8539,661.46471 c 0.0339,-0.15141 0.007,-0.22121 0.007,-0.22121 L 192.10081,294.60599 M 37.34949,312.24134 192.07784,294.5803 c 93.21441,22.41977 178.11153,11.93491 262.97014,1.68699 m -0.25482,0.0318 261.18179,-34.03186"
       inkscape:connector-curvature="0"
       sodipodi:nodetypes="ccccccccccscccccccccc" />
    <path
       style="fill:none;stroke:#000000;stroke-width:1.5;stroke-linecap:butt;stroke-linejoin:miter;stroke-miterlimit:4;stroke-opacity:1;stroke-dasharray:1.5, 6;stroke-dashoffset:0"
       d="m 106.54956,741.33182 c 197.15304,28.75503 366.90331,18.3954 476.71322,-77.52302"
       id="path7724"
       inkscape:connector-curvature="0"
       sodipodi:nodetypes="cc" />
    <path
       style="fill:none;stroke:#000000;stroke-width:1.5;stroke-linecap:butt;stroke-linejoin:miter;stroke-miterlimit:4;stroke-opacity:1;stroke-dasharray:1.5, 6;stroke-dashoffset:0"
       d="M 438.58746,838.43331 345.809,669.87142"
       id="path7726"
       inkscape:connector-curvature="0"
       sodipodi:nodetypes="cc" />
    <path
       style="fill:none;stroke:#000000;stroke-width:1.16096938;stroke-linecap:butt;stroke-linejoin:miter;stroke-miterlimit:4;stroke-opacity:1;stroke-dasharray:1.16096936, 4.64387745;stroke-dashoffset:0"
       d="m 333.05393,307.41273 107.23236,21.32882"
       id="path7728"
       inkscape:connector-curvature="0" />
    <path
       style="fill:none;stroke:#000000;stroke-width:1.16096938;stroke-linecap:butt;stroke-linejoin:miter;stroke-miterlimit:4;stroke-opacity:1;stroke-dasharray:1.16096936, 4.64387745;stroke-dashoffset:0"
       d="M 125.37538,302.37122 C 343.24802,333.9525 474.43822,315.33739 577.079,280.18977"
       id="path7730"
       inkscape:connector-curvature="0"
       sodipodi:nodetypes="cc" />
    <text
       xml:space="preserve"
       style="font-size:20px;font-style:normal;font-variant:normal;font-weight:normal;font-stretch:normal;line-height:125%;letter-spacing:0px;word-spacing:0px;fill:#000000;fill-opacity:1;stroke:none;font-family:Vijaya;-inkscape-font-specification:Vijaya"
       x="203.64674"
       y="415.1759"
       id="text7337"
       sodipodi:linespacing="125%"
       transform="translate(21.311271,259.56075)"><tspan
         sodipodi:role="line"
         id="tspan7339"
         x="203.64674"
         y="415.1759" /></text>
    <text
       xml:space="preserve"
       style="font-size:20px;font-style:normal;font-variant:normal;font-weight:normal;font-stretch:normal;line-height:125%;letter-spacing:0px;word-spacing:0px;fill:#000000;fill-opacity:1;stroke:none;font-family:Vijaya;-inkscape-font-specification:Vijaya"
       x="195.16147"
       y="417.29721"
       id="text7341"
       sodipodi:linespacing="125%"
       transform="translate(21.311271,259.56075)"><tspan
         sodipodi:role="line"
         id="tspan7343"
         x="195.16147"
         y="417.29721" /></text>
    <text
       xml:space="preserve"
       style="font-size:20px;font-style:normal;font-variant:normal;font-weight:normal;font-stretch:normal;line-height:125%;letter-spacing:0px;word-spacing:0px;fill:#000000;fill-opacity:1;stroke:none;font-family:Vijaya;-inkscape-font-specification:Vijaya"
       x="222.73865"
       y="400.32666"
       id="text7383"
       sodipodi:linespacing="125%"
       transform="translate(21.311271,259.56075)"><tspan
         sodipodi:role="line"
         id="tspan7385"
         x="222.73865"
         y="400.32666" /></text>
    <path
       style="fill:none;stroke:#008000;stroke-width:5;stroke-linecap:butt;stroke-linejoin:miter;stroke-miterlimit:4;stroke-opacity:1;stroke-dasharray:none;marker-end:url(#TriangleInM)"
       d="m 749.31127,764.21309 c 0,-160.75 0,-160.5 0,-160.5"
       id="path6012"
       inkscape:connector-curvature="0" />
    <path
       style="fill:none;stroke:#008000;stroke-width:5;stroke-linecap:butt;stroke-linejoin:miter;stroke-miterlimit:4;stroke-opacity:1;stroke-dasharray:none;marker-start:url(#TriangleInM);marker-end:none"
       d="m 909.79635,764.28282 c -160.74996,0 -160.49996,0 -160.49996,0"
       id="path6012-1"
       inkscape:connector-curvature="0" />
    <path
       style="fill:none;stroke:#008000;stroke-width:5;stroke-linecap:butt;stroke-linejoin:miter;stroke-miterlimit:4;stroke-opacity:1;stroke-dasharray:none;marker-end:url(#TriangleInM)"
       d="m 749.48623,763.88321 c -79.77864,79.77863 -79.65457,79.65456 -79.65457,79.65456"
       id="path6012-1-7"
       inkscape:connector-curvature="0" />
    <text
       xml:space="preserve"
       style="font-size:64px;font-style:normal;font-variant:normal;font-weight:normal;font-stretch:normal;line-height:125%;letter-spacing:0px;word-spacing:0px;fill:#000000;fill-opacity:1;stroke:none;font-family:Vijaya;-inkscape-font-specification:Vijaya"
       x="880.31128"
       y="818.46307"
       id="text8537"
       sodipodi:linespacing="125%"><tspan
         sodipodi:role="line"
         id="tspan8539"
         x="880.31128"
         y="818.46307">x</tspan></text>
    <text
       xml:space="preserve"
       style="font-size:64px;font-style:normal;font-variant:normal;font-weight:normal;font-stretch:normal;line-height:125%;letter-spacing:0px;word-spacing:0px;fill:#000000;fill-opacity:1;stroke:none;font-family:Vijaya;-inkscape-font-specification:Vijaya"
       x="764.31128"
       y="628.46307"
       id="text8541"
       sodipodi:linespacing="125%"><tspan
         sodipodi:role="line"
         id="tspan8543"
         x="764.31128"
         y="628.46307">y</tspan></text>
    <text
       xml:space="preserve"
       style="font-size:64px;font-style:normal;font-variant:normal;font-weight:normal;font-stretch:normal;line-height:125%;letter-spacing:0px;word-spacing:0px;fill:#000000;fill-opacity:1;stroke:none;font-family:Vijaya;-inkscape-font-specification:Vijaya"
       x="703.31128"
       y="853.46307"
       id="text8545"
       sodipodi:linespacing="125%"><tspan
         sodipodi:role="line"
         id="tspan8547"
         x="703.31128"
         y="853.46307">z</tspan></text>
  </g>
</svg>
