<?xml version="1.0" encoding="utf-8" standalone="no"?><!DOCTYPE svg PUBLIC "-//W3C//DTD SVG 1.1//EN" "http://www.w3.org/Graphics/SVG/1.1/DTD/svg11.dtd">
<svg preserveAspectRatio="xMinYMin meet" width="100%" height="100%" viewBox="0 0 560.000 420.000"  version="1.1" xmlns="http://www.w3.org/2000/svg" xmlns:xlink="http://www.w3.org/1999/xlink">
  <desc>Matlab Figure Converted by PLOT2SVG written by Juerg Schwizer</desc>
  <g id="topgroup">
  <rect x="0" y="0" width="560.000" height="420.000" fill="#ffffff" stroke="none" />
  <g id ="ID000000">
  <clipPath id="ID000001">
    <rect x="77.000" y="31.500" width="429.800" height="325.500"/>
  </clipPath>
      <polygon fill="#ffffff" fill-opacity="1.00" stroke="none" stroke-width="0.5pt" stroke-opacity="1.00" stroke-dasharray="none" points="77.000,357.000 506.800,357.000 506.800,31.500 77.000,31.500 "/>
      <polygon fill="#ffffff" fill-opacity="1.00" stroke="none" stroke-width="0.5pt" stroke-opacity="1.00" stroke-dasharray="none" points="77.000,31.500 506.800,31.500 506.800,31.500 77.000,31.500 "/>
      <polygon fill="#ffffff" fill-opacity="1.00" stroke="none" stroke-width="0.5pt" stroke-opacity="1.00" stroke-dasharray="none" points="77.000,357.000 77.000,357.000 77.000,31.500 77.000,31.500 "/>
    <g>
<g id="ID000002" clip-path="url(#ID000001)" >
      <polyline fill="none" stroke="#ff0000" stroke-width="2.0pt" stroke-dasharray="none" points="112.576,118.873 144.922,144.703 177.267,176.021 209.613,191.754 241.959,213.885 274.304,220.905 306.650,234.889 338.996,234.295 371.341,250.674 403.687,252.798 436.033,261.562 468.378,274.390 500.724,290.413 "/>
<g>
      <polygon fill="#ff0000" fill-opacity="1.00" stroke="#000000" stroke-width="2.0pt" stroke-opacity="1.00" stroke-dasharray="none" points="109.909,116.206 109.909,121.540 115.243,121.540 115.243,116.206 109.909,116.206 "/>
      <polygon fill="#ff0000" fill-opacity="1.00" stroke="#000000" stroke-width="2.0pt" stroke-opacity="1.00" stroke-dasharray="none" points="142.255,142.036 142.255,147.370 147.588,147.370 147.588,142.036 142.255,142.036 "/>
      <polygon fill="#ff0000" fill-opacity="1.00" stroke="#000000" stroke-width="2.0pt" stroke-opacity="1.00" stroke-dasharray="none" points="174.601,173.354 174.601,178.687 179.934,178.687 179.934,173.354 174.601,173.354 "/>
      <polygon fill="#ff0000" fill-opacity="1.00" stroke="#000000" stroke-width="2.0pt" stroke-opacity="1.00" stroke-dasharray="none" points="206.946,189.087 206.946,194.420 212.280,194.420 212.280,189.087 206.946,189.087 "/>
      <polygon fill="#ff0000" fill-opacity="1.00" stroke="#000000" stroke-width="2.0pt" stroke-opacity="1.00" stroke-dasharray="none" points="239.292,211.219 239.292,216.552 244.625,216.552 244.625,211.219 239.292,211.219 "/>
      <polygon fill="#ff0000" fill-opacity="1.00" stroke="#000000" stroke-width="2.0pt" stroke-opacity="1.00" stroke-dasharray="none" points="271.638,218.239 271.638,223.572 276.971,223.572 276.971,218.239 271.638,218.239 "/>
      <polygon fill="#ff0000" fill-opacity="1.00" stroke="#000000" stroke-width="2.0pt" stroke-opacity="1.00" stroke-dasharray="none" points="303.983,232.222 303.983,237.555 309.317,237.555 309.317,232.222 303.983,232.222 "/>
      <polygon fill="#ff0000" fill-opacity="1.00" stroke="#000000" stroke-width="2.0pt" stroke-opacity="1.00" stroke-dasharray="none" points="336.329,231.628 336.329,236.961 341.662,236.961 341.662,231.628 336.329,231.628 "/>
      <polygon fill="#ff0000" fill-opacity="1.00" stroke="#000000" stroke-width="2.0pt" stroke-opacity="1.00" stroke-dasharray="none" points="368.675,248.008 368.675,253.341 374.008,253.341 374.008,248.008 368.675,248.008 "/>
      <polygon fill="#ff0000" fill-opacity="1.00" stroke="#000000" stroke-width="2.0pt" stroke-opacity="1.00" stroke-dasharray="none" points="401.020,250.131 401.020,255.465 406.354,255.465 406.354,250.131 401.020,250.131 "/>
      <polygon fill="#ff0000" fill-opacity="1.00" stroke="#000000" stroke-width="2.0pt" stroke-opacity="1.00" stroke-dasharray="none" points="433.366,258.895 433.366,264.229 438.699,264.229 438.699,258.895 433.366,258.895 "/>
      <polygon fill="#ff0000" fill-opacity="1.00" stroke="#000000" stroke-width="2.0pt" stroke-opacity="1.00" stroke-dasharray="none" points="465.712,271.723 465.712,277.057 471.045,277.057 471.045,271.723 465.712,271.723 "/>
      <polygon fill="#ff0000" fill-opacity="1.00" stroke="#000000" stroke-width="2.0pt" stroke-opacity="1.00" stroke-dasharray="none" points="498.057,287.747 498.057,293.080 503.391,293.080 503.391,287.747 498.057,287.747 "/>
</g>
</g>
<g id="ID000003" clip-path="url(#ID000001)" >
      <polyline fill="none" stroke="#00ff00" stroke-width="2.0pt" stroke-dasharray="none" points="112.576,87.899 144.922,119.608 177.267,147.670 209.613,169.473 241.959,187.805 274.304,198.399 306.650,205.819 338.996,206.623 371.341,215.007 403.687,216.827 436.033,223.761 468.378,227.967 500.724,236.788 "/>
<g>
      <polygon fill="#00ff00" fill-opacity="1.00" stroke="#000000" stroke-width="2.0pt" stroke-opacity="1.00" stroke-dasharray="none" points="109.909,85.232 109.909,90.566 115.243,90.566 115.243,85.232 109.909,85.232 "/>
      <polygon fill="#00ff00" fill-opacity="1.00" stroke="#000000" stroke-width="2.0pt" stroke-opacity="1.00" stroke-dasharray="none" points="142.255,116.941 142.255,122.275 147.588,122.275 147.588,116.941 142.255,116.941 "/>
      <polygon fill="#00ff00" fill-opacity="1.00" stroke="#000000" stroke-width="2.0pt" stroke-opacity="1.00" stroke-dasharray="none" points="174.601,145.003 174.601,150.336 179.934,150.336 179.934,145.003 174.601,145.003 "/>
      <polygon fill="#00ff00" fill-opacity="1.00" stroke="#000000" stroke-width="2.0pt" stroke-opacity="1.00" stroke-dasharray="none" points="206.946,166.807 206.946,172.140 212.280,172.140 212.280,166.807 206.946,166.807 "/>
      <polygon fill="#00ff00" fill-opacity="1.00" stroke="#000000" stroke-width="2.0pt" stroke-opacity="1.00" stroke-dasharray="none" points="239.292,185.139 239.292,190.472 244.625,190.472 244.625,185.139 239.292,185.139 "/>
      <polygon fill="#00ff00" fill-opacity="1.00" stroke="#000000" stroke-width="2.0pt" stroke-opacity="1.00" stroke-dasharray="none" points="271.638,195.732 271.638,201.066 276.971,201.066 276.971,195.732 271.638,195.732 "/>
      <polygon fill="#00ff00" fill-opacity="1.00" stroke="#000000" stroke-width="2.0pt" stroke-opacity="1.00" stroke-dasharray="none" points="303.983,203.152 303.983,208.486 309.317,208.486 309.317,203.152 303.983,203.152 "/>
      <polygon fill="#00ff00" fill-opacity="1.00" stroke="#000000" stroke-width="2.0pt" stroke-opacity="1.00" stroke-dasharray="none" points="336.329,203.956 336.329,209.290 341.662,209.290 341.662,203.956 336.329,203.956 "/>
      <polygon fill="#00ff00" fill-opacity="1.00" stroke="#000000" stroke-width="2.0pt" stroke-opacity="1.00" stroke-dasharray="none" points="368.675,212.341 368.675,217.674 374.008,217.674 374.008,212.341 368.675,212.341 "/>
      <polygon fill="#00ff00" fill-opacity="1.00" stroke="#000000" stroke-width="2.0pt" stroke-opacity="1.00" stroke-dasharray="none" points="401.020,214.160 401.020,219.493 406.354,219.493 406.354,214.160 401.020,214.160 "/>
      <polygon fill="#00ff00" fill-opacity="1.00" stroke="#000000" stroke-width="2.0pt" stroke-opacity="1.00" stroke-dasharray="none" points="433.366,221.095 433.366,226.428 438.699,226.428 438.699,221.095 433.366,221.095 "/>
      <polygon fill="#00ff00" fill-opacity="1.00" stroke="#000000" stroke-width="2.0pt" stroke-opacity="1.00" stroke-dasharray="none" points="465.712,225.300 465.712,230.633 471.045,230.633 471.045,225.300 465.712,225.300 "/>
      <polygon fill="#00ff00" fill-opacity="1.00" stroke="#000000" stroke-width="2.0pt" stroke-opacity="1.00" stroke-dasharray="none" points="498.057,234.121 498.057,239.454 503.391,239.454 503.391,234.121 498.057,234.121 "/>
</g>
</g>
<g id="ID000004" clip-path="url(#ID000001)" >
      <polyline fill="none" stroke="#0000ff" stroke-width="2.0pt" stroke-dasharray="none" points="112.576,42.740 144.922,86.834 177.267,128.954 209.613,155.705 241.959,179.405 274.304,189.476 306.650,192.450 338.996,199.189 371.341,200.706 403.687,208.563 436.033,222.042 468.378,223.812 500.724,236.282 "/>
<g>
      <polygon fill="#0000ff" fill-opacity="1.00" stroke="#000000" stroke-width="2.0pt" stroke-opacity="1.00" stroke-dasharray="none" points="109.909,40.073 109.909,45.407 115.243,45.407 115.243,40.073 109.909,40.073 "/>
      <polygon fill="#0000ff" fill-opacity="1.00" stroke="#000000" stroke-width="2.0pt" stroke-opacity="1.00" stroke-dasharray="none" points="142.255,84.168 142.255,89.501 147.588,89.501 147.588,84.168 142.255,84.168 "/>
      <polygon fill="#0000ff" fill-opacity="1.00" stroke="#000000" stroke-width="2.0pt" stroke-opacity="1.00" stroke-dasharray="none" points="174.601,126.288 174.601,131.621 179.934,131.621 179.934,126.288 174.601,126.288 "/>
      <polygon fill="#0000ff" fill-opacity="1.00" stroke="#000000" stroke-width="2.0pt" stroke-opacity="1.00" stroke-dasharray="none" points="206.946,153.039 206.946,158.372 212.280,158.372 212.280,153.039 206.946,153.039 "/>
      <polygon fill="#0000ff" fill-opacity="1.00" stroke="#000000" stroke-width="2.0pt" stroke-opacity="1.00" stroke-dasharray="none" points="239.292,176.738 239.292,182.072 244.625,182.072 244.625,176.738 239.292,176.738 "/>
      <polygon fill="#0000ff" fill-opacity="1.00" stroke="#000000" stroke-width="2.0pt" stroke-opacity="1.00" stroke-dasharray="none" points="271.638,186.809 271.638,192.143 276.971,192.143 276.971,186.809 271.638,186.809 "/>
      <polygon fill="#0000ff" fill-opacity="1.00" stroke="#000000" stroke-width="2.0pt" stroke-opacity="1.00" stroke-dasharray="none" points="303.983,189.783 303.983,195.117 309.317,195.117 309.317,189.783 303.983,189.783 "/>
      <polygon fill="#0000ff" fill-opacity="1.00" stroke="#000000" stroke-width="2.0pt" stroke-opacity="1.00" stroke-dasharray="none" points="336.329,196.522 336.329,201.855 341.662,201.855 341.662,196.522 336.329,196.522 "/>
      <polygon fill="#0000ff" fill-opacity="1.00" stroke="#000000" stroke-width="2.0pt" stroke-opacity="1.00" stroke-dasharray="none" points="368.675,198.040 368.675,203.373 374.008,203.373 374.008,198.040 368.675,198.040 "/>
      <polygon fill="#0000ff" fill-opacity="1.00" stroke="#000000" stroke-width="2.0pt" stroke-opacity="1.00" stroke-dasharray="none" points="401.020,205.897 401.020,211.230 406.354,211.230 406.354,205.897 401.020,205.897 "/>
      <polygon fill="#0000ff" fill-opacity="1.00" stroke="#000000" stroke-width="2.0pt" stroke-opacity="1.00" stroke-dasharray="none" points="433.366,219.375 433.366,224.708 438.699,224.708 438.699,219.375 433.366,219.375 "/>
      <polygon fill="#0000ff" fill-opacity="1.00" stroke="#000000" stroke-width="2.0pt" stroke-opacity="1.00" stroke-dasharray="none" points="465.712,221.145 465.712,226.478 471.045,226.478 471.045,221.145 465.712,221.145 "/>
      <polygon fill="#0000ff" fill-opacity="1.00" stroke="#000000" stroke-width="2.0pt" stroke-opacity="1.00" stroke-dasharray="none" points="498.057,233.615 498.057,238.949 503.391,238.949 503.391,233.615 498.057,233.615 "/>
</g>
</g>
<g id="ID000005" clip-path="url(#ID000001)" >
      <polyline fill="none" stroke="#ffff00" stroke-width="2.0pt" stroke-dasharray="none" points="112.576,115.148 144.922,146.027 177.267,172.969 209.613,202.505 241.959,221.078 274.304,236.480 306.650,248.871 338.996,255.593 371.341,259.860 403.687,269.794 436.033,276.796 468.378,285.371 500.724,308.359 "/>
<g>
      <polygon fill="#ffff00" fill-opacity="1.00" stroke="#000000" stroke-width="2.0pt" stroke-opacity="1.00" stroke-dasharray="none" points="109.909,112.481 109.909,117.815 115.243,117.815 115.243,112.481 109.909,112.481 "/>
      <polygon fill="#ffff00" fill-opacity="1.00" stroke="#000000" stroke-width="2.0pt" stroke-opacity="1.00" stroke-dasharray="none" points="142.255,143.360 142.255,148.694 147.588,148.694 147.588,143.360 142.255,143.360 "/>
      <polygon fill="#ffff00" fill-opacity="1.00" stroke="#000000" stroke-width="2.0pt" stroke-opacity="1.00" stroke-dasharray="none" points="174.601,170.303 174.601,175.636 179.934,175.636 179.934,170.303 174.601,170.303 "/>
      <polygon fill="#ffff00" fill-opacity="1.00" stroke="#000000" stroke-width="2.0pt" stroke-opacity="1.00" stroke-dasharray="none" points="206.946,199.839 206.946,205.172 212.280,205.172 212.280,199.839 206.946,199.839 "/>
      <polygon fill="#ffff00" fill-opacity="1.00" stroke="#000000" stroke-width="2.0pt" stroke-opacity="1.00" stroke-dasharray="none" points="239.292,218.411 239.292,223.744 244.625,223.744 244.625,218.411 239.292,218.411 "/>
      <polygon fill="#ffff00" fill-opacity="1.00" stroke="#000000" stroke-width="2.0pt" stroke-opacity="1.00" stroke-dasharray="none" points="271.638,233.814 271.638,239.147 276.971,239.147 276.971,233.814 271.638,233.814 "/>
      <polygon fill="#ffff00" fill-opacity="1.00" stroke="#000000" stroke-width="2.0pt" stroke-opacity="1.00" stroke-dasharray="none" points="303.983,246.204 303.983,251.538 309.317,251.538 309.317,246.204 303.983,246.204 "/>
      <polygon fill="#ffff00" fill-opacity="1.00" stroke="#000000" stroke-width="2.0pt" stroke-opacity="1.00" stroke-dasharray="none" points="336.329,252.926 336.329,258.260 341.662,258.260 341.662,252.926 336.329,252.926 "/>
      <polygon fill="#ffff00" fill-opacity="1.00" stroke="#000000" stroke-width="2.0pt" stroke-opacity="1.00" stroke-dasharray="none" points="368.675,257.194 368.675,262.527 374.008,262.527 374.008,257.194 368.675,257.194 "/>
      <polygon fill="#ffff00" fill-opacity="1.00" stroke="#000000" stroke-width="2.0pt" stroke-opacity="1.00" stroke-dasharray="none" points="401.020,267.127 401.020,272.460 406.354,272.460 406.354,267.127 401.020,267.127 "/>
      <polygon fill="#ffff00" fill-opacity="1.00" stroke="#000000" stroke-width="2.0pt" stroke-opacity="1.00" stroke-dasharray="none" points="433.366,274.129 433.366,279.463 438.699,279.463 438.699,274.129 433.366,274.129 "/>
      <polygon fill="#ffff00" fill-opacity="1.00" stroke="#000000" stroke-width="2.0pt" stroke-opacity="1.00" stroke-dasharray="none" points="465.712,282.705 465.712,288.038 471.045,288.038 471.045,282.705 465.712,282.705 "/>
      <polygon fill="#ffff00" fill-opacity="1.00" stroke="#000000" stroke-width="2.0pt" stroke-opacity="1.00" stroke-dasharray="none" points="498.057,305.693 498.057,311.026 503.391,311.026 503.391,305.693 498.057,305.693 "/>
</g>
</g>
<g id="ID000006" >
  <g transform="translate(30.519,195.252)">
    <g transform="rotate(-90.0)">
      <text x="0.000" y="0.000" font-family="Helvetica" text-anchor="middle" font-size="20pt" fill="#000000" >Normalized Absolute Error</text>
    </g>
  </g>
</g>
<g id="ID000007" >
  <g transform="translate(291.400,410.553)">
    <g transform="rotate(-0.0)">
      <text x="0.000" y="0.000" font-family="Helvetica" text-anchor="middle" font-size="20pt" fill="#000000" >Number of clusters  / number of curves</text>
    </g>
  </g>
</g>
<g id="ID000008" >
</g>
<g id="ID000009" >
</g>
<g id="ID000010" >
</g>
    </g>
    <g>
      <polyline fill="none" stroke="#000000" stroke-width="0.5pt" stroke-dasharray="none" points="184.450,357.000 184.450,352.702 "/>
      <polyline fill="none" stroke="#000000" stroke-width="0.5pt" stroke-dasharray="none" points="291.900,357.000 291.900,352.702 "/>
      <polyline fill="none" stroke="#000000" stroke-width="0.5pt" stroke-dasharray="none" points="399.350,357.000 399.350,352.702 "/>
      <polyline fill="none" stroke="#000000" stroke-width="0.5pt" stroke-dasharray="none" points="77.000,357.000 506.800,357.000 "/>
      <polyline fill="none" stroke="#000000" stroke-width="0.5pt" stroke-dasharray="none" points="184.450,31.500 184.450,35.798 "/>
      <polyline fill="none" stroke="#000000" stroke-width="0.5pt" stroke-dasharray="none" points="291.900,31.500 291.900,35.798 "/>
      <polyline fill="none" stroke="#000000" stroke-width="0.5pt" stroke-dasharray="none" points="399.350,31.500 399.350,35.798 "/>
      <polyline fill="none" stroke="#000000" stroke-width="0.5pt" stroke-dasharray="none" points="77.000,31.500 506.800,31.500 "/>
      <polyline fill="none" stroke="#000000" stroke-width="0.5pt" stroke-dasharray="none" points="109.346,357.000 109.346,354.851 "/>
      <polyline fill="none" stroke="#000000" stroke-width="0.5pt" stroke-dasharray="none" points="128.267,357.000 128.267,354.851 "/>
      <polyline fill="none" stroke="#000000" stroke-width="0.5pt" stroke-dasharray="none" points="141.691,357.000 141.691,354.851 "/>
      <polyline fill="none" stroke="#000000" stroke-width="0.5pt" stroke-dasharray="none" points="152.104,357.000 152.104,354.851 "/>
      <polyline fill="none" stroke="#000000" stroke-width="0.5pt" stroke-dasharray="none" points="160.612,357.000 160.612,354.851 "/>
      <polyline fill="none" stroke="#000000" stroke-width="0.5pt" stroke-dasharray="none" points="167.806,357.000 167.806,354.851 "/>
      <polyline fill="none" stroke="#000000" stroke-width="0.5pt" stroke-dasharray="none" points="174.037,357.000 174.037,354.851 "/>
      <polyline fill="none" stroke="#000000" stroke-width="0.5pt" stroke-dasharray="none" points="179.533,357.000 179.533,354.851 "/>
      <polyline fill="none" stroke="#000000" stroke-width="0.5pt" stroke-dasharray="none" points="216.796,357.000 216.796,354.851 "/>
      <polyline fill="none" stroke="#000000" stroke-width="0.5pt" stroke-dasharray="none" points="235.717,357.000 235.717,354.851 "/>
      <polyline fill="none" stroke="#000000" stroke-width="0.5pt" stroke-dasharray="none" points="249.141,357.000 249.141,354.851 "/>
      <polyline fill="none" stroke="#000000" stroke-width="0.5pt" stroke-dasharray="none" points="259.554,357.000 259.554,354.851 "/>
      <polyline fill="none" stroke="#000000" stroke-width="0.5pt" stroke-dasharray="none" points="268.062,357.000 268.062,354.851 "/>
      <polyline fill="none" stroke="#000000" stroke-width="0.5pt" stroke-dasharray="none" points="275.256,357.000 275.256,354.851 "/>
      <polyline fill="none" stroke="#000000" stroke-width="0.5pt" stroke-dasharray="none" points="281.487,357.000 281.487,354.851 "/>
      <polyline fill="none" stroke="#000000" stroke-width="0.5pt" stroke-dasharray="none" points="286.983,357.000 286.983,354.851 "/>
      <polyline fill="none" stroke="#000000" stroke-width="0.5pt" stroke-dasharray="none" points="324.246,357.000 324.246,354.851 "/>
      <polyline fill="none" stroke="#000000" stroke-width="0.5pt" stroke-dasharray="none" points="343.167,357.000 343.167,354.851 "/>
      <polyline fill="none" stroke="#000000" stroke-width="0.5pt" stroke-dasharray="none" points="356.591,357.000 356.591,354.851 "/>
      <polyline fill="none" stroke="#000000" stroke-width="0.5pt" stroke-dasharray="none" points="367.004,357.000 367.004,354.851 "/>
      <polyline fill="none" stroke="#000000" stroke-width="0.5pt" stroke-dasharray="none" points="375.512,357.000 375.512,354.851 "/>
      <polyline fill="none" stroke="#000000" stroke-width="0.5pt" stroke-dasharray="none" points="382.706,357.000 382.706,354.851 "/>
      <polyline fill="none" stroke="#000000" stroke-width="0.5pt" stroke-dasharray="none" points="388.937,357.000 388.937,354.851 "/>
      <polyline fill="none" stroke="#000000" stroke-width="0.5pt" stroke-dasharray="none" points="394.433,357.000 394.433,354.851 "/>
      <polyline fill="none" stroke="#000000" stroke-width="0.5pt" stroke-dasharray="none" points="431.696,357.000 431.696,354.851 "/>
      <polyline fill="none" stroke="#000000" stroke-width="0.5pt" stroke-dasharray="none" points="450.617,357.000 450.617,354.851 "/>
      <polyline fill="none" stroke="#000000" stroke-width="0.5pt" stroke-dasharray="none" points="464.041,357.000 464.041,354.851 "/>
      <polyline fill="none" stroke="#000000" stroke-width="0.5pt" stroke-dasharray="none" points="474.454,357.000 474.454,354.851 "/>
      <polyline fill="none" stroke="#000000" stroke-width="0.5pt" stroke-dasharray="none" points="482.962,357.000 482.962,354.851 "/>
      <polyline fill="none" stroke="#000000" stroke-width="0.5pt" stroke-dasharray="none" points="490.156,357.000 490.156,354.851 "/>
      <polyline fill="none" stroke="#000000" stroke-width="0.5pt" stroke-dasharray="none" points="496.387,357.000 496.387,354.851 "/>
      <polyline fill="none" stroke="#000000" stroke-width="0.5pt" stroke-dasharray="none" points="501.883,357.000 501.883,354.851 "/>
      <polyline fill="none" stroke="#000000" stroke-width="0.5pt" stroke-dasharray="none" points="109.346,31.500 109.346,33.649 "/>
      <polyline fill="none" stroke="#000000" stroke-width="0.5pt" stroke-dasharray="none" points="128.267,31.500 128.267,33.649 "/>
      <polyline fill="none" stroke="#000000" stroke-width="0.5pt" stroke-dasharray="none" points="141.691,31.500 141.691,33.649 "/>
      <polyline fill="none" stroke="#000000" stroke-width="0.5pt" stroke-dasharray="none" points="152.104,31.500 152.104,33.649 "/>
      <polyline fill="none" stroke="#000000" stroke-width="0.5pt" stroke-dasharray="none" points="160.612,31.500 160.612,33.649 "/>
      <polyline fill="none" stroke="#000000" stroke-width="0.5pt" stroke-dasharray="none" points="167.806,31.500 167.806,33.649 "/>
      <polyline fill="none" stroke="#000000" stroke-width="0.5pt" stroke-dasharray="none" points="174.037,31.500 174.037,33.649 "/>
      <polyline fill="none" stroke="#000000" stroke-width="0.5pt" stroke-dasharray="none" points="179.533,31.500 179.533,33.649 "/>
      <polyline fill="none" stroke="#000000" stroke-width="0.5pt" stroke-dasharray="none" points="216.796,31.500 216.796,33.649 "/>
      <polyline fill="none" stroke="#000000" stroke-width="0.5pt" stroke-dasharray="none" points="235.717,31.500 235.717,33.649 "/>
      <polyline fill="none" stroke="#000000" stroke-width="0.5pt" stroke-dasharray="none" points="249.141,31.500 249.141,33.649 "/>
      <polyline fill="none" stroke="#000000" stroke-width="0.5pt" stroke-dasharray="none" points="259.554,31.500 259.554,33.649 "/>
      <polyline fill="none" stroke="#000000" stroke-width="0.5pt" stroke-dasharray="none" points="268.062,31.500 268.062,33.649 "/>
      <polyline fill="none" stroke="#000000" stroke-width="0.5pt" stroke-dasharray="none" points="275.256,31.500 275.256,33.649 "/>
      <polyline fill="none" stroke="#000000" stroke-width="0.5pt" stroke-dasharray="none" points="281.487,31.500 281.487,33.649 "/>
      <polyline fill="none" stroke="#000000" stroke-width="0.5pt" stroke-dasharray="none" points="286.983,31.500 286.983,33.649 "/>
      <polyline fill="none" stroke="#000000" stroke-width="0.5pt" stroke-dasharray="none" points="324.246,31.500 324.246,33.649 "/>
      <polyline fill="none" stroke="#000000" stroke-width="0.5pt" stroke-dasharray="none" points="343.167,31.500 343.167,33.649 "/>
      <polyline fill="none" stroke="#000000" stroke-width="0.5pt" stroke-dasharray="none" points="356.591,31.500 356.591,33.649 "/>
      <polyline fill="none" stroke="#000000" stroke-width="0.5pt" stroke-dasharray="none" points="367.004,31.500 367.004,33.649 "/>
      <polyline fill="none" stroke="#000000" stroke-width="0.5pt" stroke-dasharray="none" points="375.512,31.500 375.512,33.649 "/>
      <polyline fill="none" stroke="#000000" stroke-width="0.5pt" stroke-dasharray="none" points="382.706,31.500 382.706,33.649 "/>
      <polyline fill="none" stroke="#000000" stroke-width="0.5pt" stroke-dasharray="none" points="388.937,31.500 388.937,33.649 "/>
      <polyline fill="none" stroke="#000000" stroke-width="0.5pt" stroke-dasharray="none" points="394.433,31.500 394.433,33.649 "/>
      <polyline fill="none" stroke="#000000" stroke-width="0.5pt" stroke-dasharray="none" points="431.696,31.500 431.696,33.649 "/>
      <polyline fill="none" stroke="#000000" stroke-width="0.5pt" stroke-dasharray="none" points="450.617,31.500 450.617,33.649 "/>
      <polyline fill="none" stroke="#000000" stroke-width="0.5pt" stroke-dasharray="none" points="464.041,31.500 464.041,33.649 "/>
      <polyline fill="none" stroke="#000000" stroke-width="0.5pt" stroke-dasharray="none" points="474.454,31.500 474.454,33.649 "/>
      <polyline fill="none" stroke="#000000" stroke-width="0.5pt" stroke-dasharray="none" points="482.962,31.500 482.962,33.649 "/>
      <polyline fill="none" stroke="#000000" stroke-width="0.5pt" stroke-dasharray="none" points="490.156,31.500 490.156,33.649 "/>
      <polyline fill="none" stroke="#000000" stroke-width="0.5pt" stroke-dasharray="none" points="496.387,31.500 496.387,33.649 "/>
      <polyline fill="none" stroke="#000000" stroke-width="0.5pt" stroke-dasharray="none" points="501.883,31.500 501.883,33.649 "/>
  <g transform="translate(77.000,384.050)">
    <g transform="rotate(-0.0)">
      <text x="0.000" y="0.000" font-family="Helvetica" text-anchor="middle" font-size="13pt" fill="#000000" >10<tspan font-size="9.1pt" dy="-9.1pt">-5</tspan></text>
    </g>
  </g>
  <g transform="translate(184.450,384.050)">
    <g transform="rotate(-0.0)">
      <text x="0.000" y="0.000" font-family="Helvetica" text-anchor="middle" font-size="13pt" fill="#000000" >10<tspan font-size="9.1pt" dy="-9.1pt">-4</tspan></text>
    </g>
  </g>
  <g transform="translate(291.900,384.050)">
    <g transform="rotate(-0.0)">
      <text x="0.000" y="0.000" font-family="Helvetica" text-anchor="middle" font-size="13pt" fill="#000000" >10<tspan font-size="9.1pt" dy="-9.1pt">-3</tspan></text>
    </g>
  </g>
  <g transform="translate(399.350,384.050)">
    <g transform="rotate(-0.0)">
      <text x="0.000" y="0.000" font-family="Helvetica" text-anchor="middle" font-size="13pt" fill="#000000" >10<tspan font-size="9.1pt" dy="-9.1pt">-2</tspan></text>
    </g>
  </g>
  <g transform="translate(506.800,384.050)">
    <g transform="rotate(-0.0)">
      <text x="0.000" y="0.000" font-family="Helvetica" text-anchor="middle" font-size="13pt" fill="#000000" >10<tspan font-size="9.1pt" dy="-9.1pt">-1</tspan></text>
    </g>
  </g>
      <polyline fill="none" stroke="#000000" stroke-width="0.5pt" stroke-dasharray="none" points="77.000,248.500 81.298,248.500 "/>
      <polyline fill="none" stroke="#000000" stroke-width="0.5pt" stroke-dasharray="none" points="77.000,140.000 81.298,140.000 "/>
      <polyline fill="none" stroke="#000000" stroke-width="0.5pt" stroke-dasharray="none" points="77.000,357.000 77.000,31.500 "/>
      <polyline fill="none" stroke="#000000" stroke-width="0.5pt" stroke-dasharray="none" points="506.800,248.500 502.502,248.500 "/>
      <polyline fill="none" stroke="#000000" stroke-width="0.5pt" stroke-dasharray="none" points="506.800,140.000 502.502,140.000 "/>
      <polyline fill="none" stroke="#000000" stroke-width="0.5pt" stroke-dasharray="none" points="506.800,357.000 506.800,31.500 "/>
      <polyline fill="none" stroke="#000000" stroke-width="0.5pt" stroke-dasharray="none" points="77.000,324.338 79.149,324.338 "/>
      <polyline fill="none" stroke="#000000" stroke-width="0.5pt" stroke-dasharray="none" points="77.000,305.232 79.149,305.232 "/>
      <polyline fill="none" stroke="#000000" stroke-width="0.5pt" stroke-dasharray="none" points="77.000,291.676 79.149,291.676 "/>
      <polyline fill="none" stroke="#000000" stroke-width="0.5pt" stroke-dasharray="none" points="77.000,281.162 79.149,281.162 "/>
      <polyline fill="none" stroke="#000000" stroke-width="0.5pt" stroke-dasharray="none" points="77.000,272.571 79.149,272.571 "/>
      <polyline fill="none" stroke="#000000" stroke-width="0.5pt" stroke-dasharray="none" points="77.000,265.307 79.149,265.307 "/>
      <polyline fill="none" stroke="#000000" stroke-width="0.5pt" stroke-dasharray="none" points="77.000,259.015 79.149,259.015 "/>
      <polyline fill="none" stroke="#000000" stroke-width="0.5pt" stroke-dasharray="none" points="77.000,253.465 79.149,253.465 "/>
      <polyline fill="none" stroke="#000000" stroke-width="0.5pt" stroke-dasharray="none" points="77.000,215.838 79.149,215.838 "/>
      <polyline fill="none" stroke="#000000" stroke-width="0.5pt" stroke-dasharray="none" points="77.000,196.732 79.149,196.732 "/>
      <polyline fill="none" stroke="#000000" stroke-width="0.5pt" stroke-dasharray="none" points="77.000,183.176 79.149,183.176 "/>
      <polyline fill="none" stroke="#000000" stroke-width="0.5pt" stroke-dasharray="none" points="77.000,172.662 79.149,172.662 "/>
      <polyline fill="none" stroke="#000000" stroke-width="0.5pt" stroke-dasharray="none" points="77.000,164.071 79.149,164.071 "/>
      <polyline fill="none" stroke="#000000" stroke-width="0.5pt" stroke-dasharray="none" points="77.000,156.807 79.149,156.807 "/>
      <polyline fill="none" stroke="#000000" stroke-width="0.5pt" stroke-dasharray="none" points="77.000,150.515 79.149,150.515 "/>
      <polyline fill="none" stroke="#000000" stroke-width="0.5pt" stroke-dasharray="none" points="77.000,144.965 79.149,144.965 "/>
      <polyline fill="none" stroke="#000000" stroke-width="0.5pt" stroke-dasharray="none" points="77.000,107.338 79.149,107.338 "/>
      <polyline fill="none" stroke="#000000" stroke-width="0.5pt" stroke-dasharray="none" points="77.000,88.232 79.149,88.232 "/>
      <polyline fill="none" stroke="#000000" stroke-width="0.5pt" stroke-dasharray="none" points="77.000,74.676 79.149,74.676 "/>
      <polyline fill="none" stroke="#000000" stroke-width="0.5pt" stroke-dasharray="none" points="77.000,64.162 79.149,64.162 "/>
      <polyline fill="none" stroke="#000000" stroke-width="0.5pt" stroke-dasharray="none" points="77.000,55.571 79.149,55.571 "/>
      <polyline fill="none" stroke="#000000" stroke-width="0.5pt" stroke-dasharray="none" points="77.000,48.307 79.149,48.307 "/>
      <polyline fill="none" stroke="#000000" stroke-width="0.5pt" stroke-dasharray="none" points="77.000,42.015 79.149,42.015 "/>
      <polyline fill="none" stroke="#000000" stroke-width="0.5pt" stroke-dasharray="none" points="77.000,36.465 79.149,36.465 "/>
      <polyline fill="none" stroke="#000000" stroke-width="0.5pt" stroke-dasharray="none" points="506.800,324.338 504.651,324.338 "/>
      <polyline fill="none" stroke="#000000" stroke-width="0.5pt" stroke-dasharray="none" points="506.800,305.232 504.651,305.232 "/>
      <polyline fill="none" stroke="#000000" stroke-width="0.5pt" stroke-dasharray="none" points="506.800,291.676 504.651,291.676 "/>
      <polyline fill="none" stroke="#000000" stroke-width="0.5pt" stroke-dasharray="none" points="506.800,281.162 504.651,281.162 "/>
      <polyline fill="none" stroke="#000000" stroke-width="0.5pt" stroke-dasharray="none" points="506.800,272.571 504.651,272.571 "/>
      <polyline fill="none" stroke="#000000" stroke-width="0.5pt" stroke-dasharray="none" points="506.800,265.307 504.651,265.307 "/>
      <polyline fill="none" stroke="#000000" stroke-width="0.5pt" stroke-dasharray="none" points="506.800,259.015 504.651,259.015 "/>
      <polyline fill="none" stroke="#000000" stroke-width="0.5pt" stroke-dasharray="none" points="506.800,253.465 504.651,253.465 "/>
      <polyline fill="none" stroke="#000000" stroke-width="0.5pt" stroke-dasharray="none" points="506.800,215.838 504.651,215.838 "/>
      <polyline fill="none" stroke="#000000" stroke-width="0.5pt" stroke-dasharray="none" points="506.800,196.732 504.651,196.732 "/>
      <polyline fill="none" stroke="#000000" stroke-width="0.5pt" stroke-dasharray="none" points="506.800,183.176 504.651,183.176 "/>
      <polyline fill="none" stroke="#000000" stroke-width="0.5pt" stroke-dasharray="none" points="506.800,172.662 504.651,172.662 "/>
      <polyline fill="none" stroke="#000000" stroke-width="0.5pt" stroke-dasharray="none" points="506.800,164.071 504.651,164.071 "/>
      <polyline fill="none" stroke="#000000" stroke-width="0.5pt" stroke-dasharray="none" points="506.800,156.807 504.651,156.807 "/>
      <polyline fill="none" stroke="#000000" stroke-width="0.5pt" stroke-dasharray="none" points="506.800,150.515 504.651,150.515 "/>
      <polyline fill="none" stroke="#000000" stroke-width="0.5pt" stroke-dasharray="none" points="506.800,144.965 504.651,144.965 "/>
      <polyline fill="none" stroke="#000000" stroke-width="0.5pt" stroke-dasharray="none" points="506.800,107.338 504.651,107.338 "/>
      <polyline fill="none" stroke="#000000" stroke-width="0.5pt" stroke-dasharray="none" points="506.800,88.232 504.651,88.232 "/>
      <polyline fill="none" stroke="#000000" stroke-width="0.5pt" stroke-dasharray="none" points="506.800,74.676 504.651,74.676 "/>
      <polyline fill="none" stroke="#000000" stroke-width="0.5pt" stroke-dasharray="none" points="506.800,64.162 504.651,64.162 "/>
      <polyline fill="none" stroke="#000000" stroke-width="0.5pt" stroke-dasharray="none" points="506.800,55.571 504.651,55.571 "/>
      <polyline fill="none" stroke="#000000" stroke-width="0.5pt" stroke-dasharray="none" points="506.800,48.307 504.651,48.307 "/>
      <polyline fill="none" stroke="#000000" stroke-width="0.5pt" stroke-dasharray="none" points="506.800,42.015 504.651,42.015 "/>
      <polyline fill="none" stroke="#000000" stroke-width="0.5pt" stroke-dasharray="none" points="506.800,36.465 504.651,36.465 "/>
  <g transform="translate(68.404,368.050)">
    <g transform="rotate(-0.0)">
      <text x="0.000" y="0.000" font-family="Helvetica" text-anchor="end" font-size="13pt" fill="#000000" >10<tspan font-size="9.1pt" dy="-9.1pt">-4</tspan></text>
    </g>
  </g>
  <g transform="translate(68.404,259.550)">
    <g transform="rotate(-0.0)">
      <text x="0.000" y="0.000" font-family="Helvetica" text-anchor="end" font-size="13pt" fill="#000000" >10<tspan font-size="9.1pt" dy="-9.1pt">-3</tspan></text>
    </g>
  </g>
  <g transform="translate(68.404,151.050)">
    <g transform="rotate(-0.0)">
      <text x="0.000" y="0.000" font-family="Helvetica" text-anchor="end" font-size="13pt" fill="#000000" >10<tspan font-size="9.1pt" dy="-9.1pt">-2</tspan></text>
    </g>
  </g>
  <g transform="translate(68.404,42.550)">
    <g transform="rotate(-0.0)">
      <text x="0.000" y="0.000" font-family="Helvetica" text-anchor="end" font-size="13pt" fill="#000000" >10<tspan font-size="9.1pt" dy="-9.1pt">-1</tspan></text>
    </g>
  </g>
      <polyline fill="none" stroke="#000000" stroke-width="0.5pt" stroke-dasharray="none" points="77.000,357.000 77.000,353.745 "/>
      <polyline fill="none" stroke="#000000" stroke-width="0.5pt" stroke-dasharray="none" points="77.000,357.000 77.000,357.000 "/>
    </g>
  </g>
  <g id ="ID000011">
  <clipPath id="ID000012">
    <rect x="198.833" y="39.167" width="303.000" height="99.333"/>
  </clipPath>
      <polygon fill="#ffffff" fill-opacity="1.00" stroke="none" stroke-width="0.5pt" stroke-opacity="1.00" stroke-dasharray="none" points="198.833,138.500 501.833,138.500 501.833,39.167 198.833,39.167 "/>
      <polygon fill="#ffffff" fill-opacity="1.00" stroke="none" stroke-width="0.5pt" stroke-opacity="1.00" stroke-dasharray="none" points="198.833,39.167 501.833,39.167 501.833,39.167 198.833,39.167 "/>
      <polygon fill="#ffffff" fill-opacity="1.00" stroke="none" stroke-width="0.5pt" stroke-opacity="1.00" stroke-dasharray="none" points="198.833,138.500 198.833,138.500 198.833,39.167 198.833,39.167 "/>
    <g>
<g id="ID000013" >
  <g transform="translate(251.333,59.420)">
    <g transform="rotate(-0.0)">
      <text x="0.000" y="0.000" font-family="Helvetica" text-anchor="start" font-size="13pt" fill="#000000" >Image of Radial Strain</text>
    </g>
  </g>
</g>
<g id="ID000014" clip-path="url(#ID000012)" >
      <polyline fill="none" stroke="#ff0000" stroke-width="2.0pt" stroke-dasharray="none" points="206.833,53.333 246.833,53.333 "/>
<g>
</g>
</g>
<g id="ID000015" clip-path="url(#ID000012)" >
<g>
      <polygon fill="#ff0000" fill-opacity="1.00" stroke="#000000" stroke-width="2.0pt" stroke-opacity="1.00" stroke-dasharray="none" points="224.167,50.667 224.167,56.000 229.500,56.000 229.500,50.667 224.167,50.667 "/>
</g>
</g>
<g id="ID000016" >
  <g transform="translate(251.333,83.260)">
    <g transform="rotate(-0.0)">
      <text x="0.000" y="0.000" font-family="Helvetica" text-anchor="start" font-size="13pt" fill="#000000" >Image of Circumferential Strain</text>
    </g>
  </g>
</g>
<g id="ID000017" clip-path="url(#ID000012)" >
      <polyline fill="none" stroke="#00ff00" stroke-width="2.0pt" stroke-dasharray="none" points="206.833,77.000 246.833,77.000 "/>
<g>
</g>
</g>
<g id="ID000018" clip-path="url(#ID000012)" >
<g>
      <polygon fill="#00ff00" fill-opacity="1.00" stroke="#000000" stroke-width="2.0pt" stroke-opacity="1.00" stroke-dasharray="none" points="224.167,74.333 224.167,79.667 229.500,79.667 229.500,74.333 224.167,74.333 "/>
</g>
</g>
<g id="ID000019" >
  <g transform="translate(251.333,108.093)">
    <g transform="rotate(-0.0)">
      <text x="0.000" y="0.000" font-family="Helvetica" text-anchor="start" font-size="13pt" fill="#000000" >Image of Longitudinal Strain</text>
    </g>
  </g>
</g>
<g id="ID000020" clip-path="url(#ID000012)" >
      <polyline fill="none" stroke="#0000ff" stroke-width="2.0pt" stroke-dasharray="none" points="206.833,100.667 246.833,100.667 "/>
<g>
</g>
</g>
<g id="ID000021" clip-path="url(#ID000012)" >
<g>
      <polygon fill="#0000ff" fill-opacity="1.00" stroke="#000000" stroke-width="2.0pt" stroke-opacity="1.00" stroke-dasharray="none" points="224.167,98.000 224.167,103.333 229.500,103.333 229.500,98.000 224.167,98.000 "/>
</g>
</g>
<g id="ID000022" >
  <g transform="translate(251.333,131.933)">
    <g transform="rotate(-0.0)">
      <text x="0.000" y="0.000" font-family="Helvetica" text-anchor="start" font-size="13pt" fill="#000000" >Image of Combined Strains</text>
    </g>
  </g>
</g>
<g id="ID000023" clip-path="url(#ID000012)" >
      <polyline fill="none" stroke="#ffff00" stroke-width="2.0pt" stroke-dasharray="none" points="206.833,124.333 246.833,124.333 "/>
<g>
</g>
</g>
<g id="ID000024" clip-path="url(#ID000012)" >
<g>
      <polygon fill="#ffff00" fill-opacity="1.00" stroke="#000000" stroke-width="2.0pt" stroke-opacity="1.00" stroke-dasharray="none" points="224.167,121.667 224.167,127.000 229.500,127.000 229.500,121.667 224.167,121.667 "/>
</g>
</g>
<g id="ID000025" >
</g>
<g id="ID000026" >
</g>
<g id="ID000027" >
</g>
    </g>
    <g>
      <polyline fill="none" stroke="#000000" stroke-width="0.5pt" stroke-dasharray="none" points="198.833,138.500 501.833,138.500 "/>
      <polyline fill="none" stroke="#000000" stroke-width="0.5pt" stroke-dasharray="none" points="198.833,39.167 501.833,39.167 "/>
      <polyline fill="none" stroke="#000000" stroke-width="0.5pt" stroke-dasharray="none" points="198.833,138.500 198.833,39.167 "/>
      <polyline fill="none" stroke="#000000" stroke-width="0.5pt" stroke-dasharray="none" points="501.833,138.500 501.833,39.167 "/>
      <polyline fill="none" stroke="#000000" stroke-width="0.5pt" stroke-dasharray="none" points="198.833,138.500 198.833,137.507 "/>
      <polyline fill="none" stroke="#000000" stroke-width="0.5pt" stroke-dasharray="none" points="198.833,138.500 198.833,138.500 "/>
    </g>
  </g>
  </g>
</svg>
