<?xml version="1.0" encoding="utf-8" standalone="no"?><!DOCTYPE svg PUBLIC "-//W3C//DTD SVG 1.1//EN" "http://www.w3.org/Graphics/SVG/1.1/DTD/svg11.dtd">
<svg preserveAspectRatio="xMinYMin meet" width="100%" height="100%" viewBox="0 0 560.000 420.000"  version="1.1" xmlns="http://www.w3.org/2000/svg" xmlns:xlink="http://www.w3.org/1999/xlink">
  <desc>Matlab Figure Converted by PLOT2SVG written by Juerg Schwizer</desc>
  <g id="topgroup">
  <rect x="0" y="0" width="560.000" height="420.000" fill="#ffffff" stroke="none" />
  <g id ="ID000000">
  <clipPath id="ID000001">
    <rect x="72.800" y="31.500" width="434.000" height="338.500"/>
  </clipPath>
      <polygon fill="#ffffff" fill-opacity="1.00" stroke="none" stroke-width="0.5pt" stroke-opacity="1.00" stroke-dasharray="none" points="72.800,370.000 506.800,370.000 506.800,31.500 72.800,31.500 "/>
      <polygon fill="#ffffff" fill-opacity="1.00" stroke="none" stroke-width="0.5pt" stroke-opacity="1.00" stroke-dasharray="none" points="72.800,31.500 506.800,31.500 506.800,31.500 72.800,31.500 "/>
      <polygon fill="#ffffff" fill-opacity="1.00" stroke="none" stroke-width="0.5pt" stroke-opacity="1.00" stroke-dasharray="none" points="72.800,370.000 72.800,370.000 72.800,31.500 72.800,31.500 "/>
    <g>
<g id="ID000002" clip-path="url(#ID000001)" >
      <polyline fill="none" stroke="#ff0000" stroke-width="2.0pt" stroke-dasharray="none" points="108.724,122.362 141.385,149.224 174.047,181.793 206.709,198.154 239.371,221.170 272.032,228.470 304.694,243.012 337.356,242.394 370.018,259.428 402.679,261.636 435.341,270.750 468.003,284.091 500.665,300.754 "/>
<g>
      <polygon fill="#ff0000" fill-opacity="1.00" stroke="#000000" stroke-width="2.0pt" stroke-opacity="1.00" stroke-dasharray="none" points="106.057,119.696 106.057,125.029 111.390,125.029 111.390,119.696 106.057,119.696 "/>
      <polygon fill="#ff0000" fill-opacity="1.00" stroke="#000000" stroke-width="2.0pt" stroke-opacity="1.00" stroke-dasharray="none" points="138.719,146.557 138.719,151.891 144.052,151.891 144.052,146.557 138.719,146.557 "/>
      <polygon fill="#ff0000" fill-opacity="1.00" stroke="#000000" stroke-width="2.0pt" stroke-opacity="1.00" stroke-dasharray="none" points="171.380,179.126 171.380,184.459 176.714,184.459 176.714,179.126 171.380,179.126 "/>
      <polygon fill="#ff0000" fill-opacity="1.00" stroke="#000000" stroke-width="2.0pt" stroke-opacity="1.00" stroke-dasharray="none" points="204.042,195.487 204.042,200.821 209.375,200.821 209.375,195.487 204.042,195.487 "/>
      <polygon fill="#ff0000" fill-opacity="1.00" stroke="#000000" stroke-width="2.0pt" stroke-opacity="1.00" stroke-dasharray="none" points="236.704,218.503 236.704,223.836 242.037,223.836 242.037,218.503 236.704,218.503 "/>
      <polygon fill="#ff0000" fill-opacity="1.00" stroke="#000000" stroke-width="2.0pt" stroke-opacity="1.00" stroke-dasharray="none" points="269.366,225.803 269.366,231.137 274.699,231.137 274.699,225.803 269.366,225.803 "/>
      <polygon fill="#ff0000" fill-opacity="1.00" stroke="#000000" stroke-width="2.0pt" stroke-opacity="1.00" stroke-dasharray="none" points="302.027,240.345 302.027,245.679 307.361,245.679 307.361,240.345 302.027,240.345 "/>
      <polygon fill="#ff0000" fill-opacity="1.00" stroke="#000000" stroke-width="2.0pt" stroke-opacity="1.00" stroke-dasharray="none" points="334.689,239.727 334.689,245.061 340.022,245.061 340.022,239.727 334.689,239.727 "/>
      <polygon fill="#ff0000" fill-opacity="1.00" stroke="#000000" stroke-width="2.0pt" stroke-opacity="1.00" stroke-dasharray="none" points="367.351,256.761 367.351,262.094 372.684,262.094 372.684,256.761 367.351,256.761 "/>
      <polygon fill="#ff0000" fill-opacity="1.00" stroke="#000000" stroke-width="2.0pt" stroke-opacity="1.00" stroke-dasharray="none" points="400.013,258.970 400.013,264.303 405.346,264.303 405.346,258.970 400.013,258.970 "/>
      <polygon fill="#ff0000" fill-opacity="1.00" stroke="#000000" stroke-width="2.0pt" stroke-opacity="1.00" stroke-dasharray="none" points="432.674,268.084 432.674,273.417 438.008,273.417 438.008,268.084 432.674,268.084 "/>
      <polygon fill="#ff0000" fill-opacity="1.00" stroke="#000000" stroke-width="2.0pt" stroke-opacity="1.00" stroke-dasharray="none" points="465.336,281.424 465.336,286.757 470.670,286.757 470.670,281.424 465.336,281.424 "/>
      <polygon fill="#ff0000" fill-opacity="1.00" stroke="#000000" stroke-width="2.0pt" stroke-opacity="1.00" stroke-dasharray="none" points="497.998,298.087 497.998,303.421 503.331,303.421 503.331,298.087 497.998,298.087 "/>
</g>
</g>
<g id="ID000003" clip-path="url(#ID000001)" >
      <polyline fill="none" stroke="#00ff00" stroke-width="2.0pt" stroke-dasharray="none" points="108.724,90.151 141.385,123.127 174.047,152.309 206.709,174.984 239.371,194.048 272.032,205.065 304.694,212.781 337.356,213.617 370.018,222.336 402.679,224.228 435.341,231.440 468.003,235.813 500.665,244.987 "/>
<g>
      <polygon fill="#00ff00" fill-opacity="1.00" stroke="#000000" stroke-width="2.0pt" stroke-opacity="1.00" stroke-dasharray="none" points="106.057,87.485 106.057,92.818 111.390,92.818 111.390,87.485 106.057,87.485 "/>
      <polygon fill="#00ff00" fill-opacity="1.00" stroke="#000000" stroke-width="2.0pt" stroke-opacity="1.00" stroke-dasharray="none" points="138.719,120.460 138.719,125.794 144.052,125.794 144.052,120.460 138.719,120.460 "/>
      <polygon fill="#00ff00" fill-opacity="1.00" stroke="#000000" stroke-width="2.0pt" stroke-opacity="1.00" stroke-dasharray="none" points="171.380,149.643 171.380,154.976 176.714,154.976 176.714,149.643 171.380,149.643 "/>
      <polygon fill="#00ff00" fill-opacity="1.00" stroke="#000000" stroke-width="2.0pt" stroke-opacity="1.00" stroke-dasharray="none" points="204.042,172.317 204.042,177.650 209.375,177.650 209.375,172.317 204.042,172.317 "/>
      <polygon fill="#00ff00" fill-opacity="1.00" stroke="#000000" stroke-width="2.0pt" stroke-opacity="1.00" stroke-dasharray="none" points="236.704,191.381 236.704,196.715 242.037,196.715 242.037,191.381 236.704,191.381 "/>
      <polygon fill="#00ff00" fill-opacity="1.00" stroke="#000000" stroke-width="2.0pt" stroke-opacity="1.00" stroke-dasharray="none" points="269.366,202.398 269.366,207.731 274.699,207.731 274.699,202.398 269.366,202.398 "/>
      <polygon fill="#00ff00" fill-opacity="1.00" stroke="#000000" stroke-width="2.0pt" stroke-opacity="1.00" stroke-dasharray="none" points="302.027,210.114 302.027,215.448 307.361,215.448 307.361,210.114 302.027,210.114 "/>
      <polygon fill="#00ff00" fill-opacity="1.00" stroke="#000000" stroke-width="2.0pt" stroke-opacity="1.00" stroke-dasharray="none" points="334.689,210.950 334.689,216.284 340.022,216.284 340.022,210.950 334.689,210.950 "/>
      <polygon fill="#00ff00" fill-opacity="1.00" stroke="#000000" stroke-width="2.0pt" stroke-opacity="1.00" stroke-dasharray="none" points="367.351,219.670 367.351,225.003 372.684,225.003 372.684,219.670 367.351,219.670 "/>
      <polygon fill="#00ff00" fill-opacity="1.00" stroke="#000000" stroke-width="2.0pt" stroke-opacity="1.00" stroke-dasharray="none" points="400.013,221.562 400.013,226.895 405.346,226.895 405.346,221.562 400.013,221.562 "/>
      <polygon fill="#00ff00" fill-opacity="1.00" stroke="#000000" stroke-width="2.0pt" stroke-opacity="1.00" stroke-dasharray="none" points="432.674,228.773 432.674,234.107 438.008,234.107 438.008,228.773 432.674,228.773 "/>
      <polygon fill="#00ff00" fill-opacity="1.00" stroke="#000000" stroke-width="2.0pt" stroke-opacity="1.00" stroke-dasharray="none" points="465.336,233.147 465.336,238.480 470.670,238.480 470.670,233.147 465.336,233.147 "/>
      <polygon fill="#00ff00" fill-opacity="1.00" stroke="#000000" stroke-width="2.0pt" stroke-opacity="1.00" stroke-dasharray="none" points="497.998,242.320 497.998,247.653 503.331,247.653 503.331,242.320 497.998,242.320 "/>
</g>
</g>
<g id="ID000004" clip-path="url(#ID000001)" >
      <polyline fill="none" stroke="#0000ff" stroke-width="2.0pt" stroke-dasharray="none" points="108.724,43.189 141.385,89.044 174.047,132.846 206.709,160.666 239.371,185.312 272.032,195.785 304.694,198.878 337.356,205.886 370.018,207.464 402.679,215.635 435.341,229.652 468.003,231.492 500.665,244.461 "/>
<g>
      <polygon fill="#0000ff" fill-opacity="1.00" stroke="#000000" stroke-width="2.0pt" stroke-opacity="1.00" stroke-dasharray="none" points="106.057,40.522 106.057,45.855 111.390,45.855 111.390,40.522 106.057,40.522 "/>
      <polygon fill="#0000ff" fill-opacity="1.00" stroke="#000000" stroke-width="2.0pt" stroke-opacity="1.00" stroke-dasharray="none" points="138.719,86.378 138.719,91.711 144.052,91.711 144.052,86.378 138.719,86.378 "/>
      <polygon fill="#0000ff" fill-opacity="1.00" stroke="#000000" stroke-width="2.0pt" stroke-opacity="1.00" stroke-dasharray="none" points="171.380,130.180 171.380,135.513 176.714,135.513 176.714,130.180 171.380,130.180 "/>
      <polygon fill="#0000ff" fill-opacity="1.00" stroke="#000000" stroke-width="2.0pt" stroke-opacity="1.00" stroke-dasharray="none" points="204.042,157.999 204.042,163.332 209.375,163.332 209.375,157.999 204.042,157.999 "/>
      <polygon fill="#0000ff" fill-opacity="1.00" stroke="#000000" stroke-width="2.0pt" stroke-opacity="1.00" stroke-dasharray="none" points="236.704,182.645 236.704,187.979 242.037,187.979 242.037,182.645 236.704,182.645 "/>
      <polygon fill="#0000ff" fill-opacity="1.00" stroke="#000000" stroke-width="2.0pt" stroke-opacity="1.00" stroke-dasharray="none" points="269.366,193.119 269.366,198.452 274.699,198.452 274.699,193.119 269.366,193.119 "/>
      <polygon fill="#0000ff" fill-opacity="1.00" stroke="#000000" stroke-width="2.0pt" stroke-opacity="1.00" stroke-dasharray="none" points="302.027,196.211 302.027,201.545 307.361,201.545 307.361,196.211 302.027,196.211 "/>
      <polygon fill="#0000ff" fill-opacity="1.00" stroke="#000000" stroke-width="2.0pt" stroke-opacity="1.00" stroke-dasharray="none" points="334.689,203.219 334.689,208.552 340.022,208.552 340.022,203.219 334.689,203.219 "/>
      <polygon fill="#0000ff" fill-opacity="1.00" stroke="#000000" stroke-width="2.0pt" stroke-opacity="1.00" stroke-dasharray="none" points="367.351,204.797 367.351,210.131 372.684,210.131 372.684,204.797 367.351,204.797 "/>
      <polygon fill="#0000ff" fill-opacity="1.00" stroke="#000000" stroke-width="2.0pt" stroke-opacity="1.00" stroke-dasharray="none" points="400.013,212.968 400.013,218.302 405.346,218.302 405.346,212.968 400.013,212.968 "/>
      <polygon fill="#0000ff" fill-opacity="1.00" stroke="#000000" stroke-width="2.0pt" stroke-opacity="1.00" stroke-dasharray="none" points="432.674,226.985 432.674,232.318 438.008,232.318 438.008,226.985 432.674,226.985 "/>
      <polygon fill="#0000ff" fill-opacity="1.00" stroke="#000000" stroke-width="2.0pt" stroke-opacity="1.00" stroke-dasharray="none" points="465.336,228.826 465.336,234.159 470.670,234.159 470.670,228.826 465.336,228.826 "/>
      <polygon fill="#0000ff" fill-opacity="1.00" stroke="#000000" stroke-width="2.0pt" stroke-opacity="1.00" stroke-dasharray="none" points="497.998,241.794 497.998,247.127 503.331,247.127 503.331,241.794 497.998,241.794 "/>
</g>
</g>
<g id="ID000005" clip-path="url(#ID000001)" >
      <polyline fill="none" stroke="#ffff00" stroke-width="2.0pt" stroke-dasharray="none" points="108.724,118.489 141.385,150.601 174.047,178.619 206.709,209.335 239.371,228.649 272.032,244.667 304.694,257.552 337.356,264.543 370.018,268.981 402.679,279.311 435.341,286.593 468.003,295.511 500.665,319.417 "/>
<g>
      <polygon fill="#ffff00" fill-opacity="1.00" stroke="#000000" stroke-width="2.0pt" stroke-opacity="1.00" stroke-dasharray="none" points="106.057,115.822 106.057,121.156 111.390,121.156 111.390,115.822 106.057,115.822 "/>
      <polygon fill="#ffff00" fill-opacity="1.00" stroke="#000000" stroke-width="2.0pt" stroke-opacity="1.00" stroke-dasharray="none" points="138.719,147.934 138.719,153.268 144.052,153.268 144.052,147.934 138.719,147.934 "/>
      <polygon fill="#ffff00" fill-opacity="1.00" stroke="#000000" stroke-width="2.0pt" stroke-opacity="1.00" stroke-dasharray="none" points="171.380,175.953 171.380,181.286 176.714,181.286 176.714,175.953 171.380,175.953 "/>
      <polygon fill="#ffff00" fill-opacity="1.00" stroke="#000000" stroke-width="2.0pt" stroke-opacity="1.00" stroke-dasharray="none" points="204.042,206.668 204.042,212.002 209.375,212.002 209.375,206.668 204.042,206.668 "/>
      <polygon fill="#ffff00" fill-opacity="1.00" stroke="#000000" stroke-width="2.0pt" stroke-opacity="1.00" stroke-dasharray="none" points="236.704,225.982 236.704,231.316 242.037,231.316 242.037,225.982 236.704,225.982 "/>
      <polygon fill="#ffff00" fill-opacity="1.00" stroke="#000000" stroke-width="2.0pt" stroke-opacity="1.00" stroke-dasharray="none" points="269.366,242.000 269.366,247.333 274.699,247.333 274.699,242.000 269.366,242.000 "/>
      <polygon fill="#ffff00" fill-opacity="1.00" stroke="#000000" stroke-width="2.0pt" stroke-opacity="1.00" stroke-dasharray="none" points="302.027,254.886 302.027,260.219 307.361,260.219 307.361,254.886 302.027,254.886 "/>
      <polygon fill="#ffff00" fill-opacity="1.00" stroke="#000000" stroke-width="2.0pt" stroke-opacity="1.00" stroke-dasharray="none" points="334.689,261.876 334.689,267.210 340.022,267.210 340.022,261.876 334.689,261.876 "/>
      <polygon fill="#ffff00" fill-opacity="1.00" stroke="#000000" stroke-width="2.0pt" stroke-opacity="1.00" stroke-dasharray="none" points="367.351,266.314 367.351,271.647 372.684,271.647 372.684,266.314 367.351,266.314 "/>
      <polygon fill="#ffff00" fill-opacity="1.00" stroke="#000000" stroke-width="2.0pt" stroke-opacity="1.00" stroke-dasharray="none" points="400.013,276.644 400.013,281.978 405.346,281.978 405.346,276.644 400.013,276.644 "/>
      <polygon fill="#ffff00" fill-opacity="1.00" stroke="#000000" stroke-width="2.0pt" stroke-opacity="1.00" stroke-dasharray="none" points="432.674,283.926 432.674,289.259 438.008,289.259 438.008,283.926 432.674,283.926 "/>
      <polygon fill="#ffff00" fill-opacity="1.00" stroke="#000000" stroke-width="2.0pt" stroke-opacity="1.00" stroke-dasharray="none" points="465.336,292.844 465.336,298.177 470.670,298.177 470.670,292.844 465.336,292.844 "/>
      <polygon fill="#ffff00" fill-opacity="1.00" stroke="#000000" stroke-width="2.0pt" stroke-opacity="1.00" stroke-dasharray="none" points="497.998,316.750 497.998,322.083 503.331,322.083 503.331,316.750 497.998,316.750 "/>
</g>
</g>
<g id="ID000006" >
  <g transform="translate(289.300,20.989)">
    <g transform="rotate(-0.0)">
      <text x="0.000" y="0.000" font-family="Helvetica" text-anchor="middle" font-size="12pt" fill="#000000" >Image Error Measurement for Varying Cluster Sizes</text>
    </g>
  </g>
</g>
<g id="ID000007" >
  <g transform="translate(31.300,202.252)">
    <g transform="rotate(-90.0)">
      <text x="0.000" y="0.000" font-family="Helvetica" text-anchor="middle" font-size="12pt" fill="#000000" >Normalized Absolute Error (NAE)</text>
    </g>
  </g>
</g>
<g id="ID000008" >
  <g transform="translate(289.300,413.948)">
    <g transform="rotate(-0.0)">
      <text x="0.000" y="0.000" font-family="Helvetica" text-anchor="middle" font-size="12pt" fill="#000000" >Number of clusters in relation to the number of curves</text>
    </g>
  </g>
</g>
<g id="ID000009" >
</g>
<g id="ID000010" >
</g>
    </g>
    <g>
      <polyline fill="none" stroke="#000000" stroke-width="0.5pt" stroke-dasharray="none" points="181.300,370.000 181.300,365.660 "/>
      <polyline fill="none" stroke="#000000" stroke-width="0.5pt" stroke-dasharray="none" points="289.800,370.000 289.800,365.660 "/>
      <polyline fill="none" stroke="#000000" stroke-width="0.5pt" stroke-dasharray="none" points="398.300,370.000 398.300,365.660 "/>
      <polyline fill="none" stroke="#000000" stroke-width="0.5pt" stroke-dasharray="none" points="72.800,370.000 506.800,370.000 "/>
      <polyline fill="none" stroke="#000000" stroke-width="0.5pt" stroke-dasharray="none" points="181.300,31.500 181.300,35.840 "/>
      <polyline fill="none" stroke="#000000" stroke-width="0.5pt" stroke-dasharray="none" points="289.800,31.500 289.800,35.840 "/>
      <polyline fill="none" stroke="#000000" stroke-width="0.5pt" stroke-dasharray="none" points="398.300,31.500 398.300,35.840 "/>
      <polyline fill="none" stroke="#000000" stroke-width="0.5pt" stroke-dasharray="none" points="72.800,31.500 506.800,31.500 "/>
      <polyline fill="none" stroke="#000000" stroke-width="0.5pt" stroke-dasharray="none" points="105.462,370.000 105.462,367.830 "/>
      <polyline fill="none" stroke="#000000" stroke-width="0.5pt" stroke-dasharray="none" points="124.568,370.000 124.568,367.830 "/>
      <polyline fill="none" stroke="#000000" stroke-width="0.5pt" stroke-dasharray="none" points="138.124,370.000 138.124,367.830 "/>
      <polyline fill="none" stroke="#000000" stroke-width="0.5pt" stroke-dasharray="none" points="148.638,370.000 148.638,367.830 "/>
      <polyline fill="none" stroke="#000000" stroke-width="0.5pt" stroke-dasharray="none" points="157.229,370.000 157.229,367.830 "/>
      <polyline fill="none" stroke="#000000" stroke-width="0.5pt" stroke-dasharray="none" points="164.493,370.000 164.493,367.830 "/>
      <polyline fill="none" stroke="#000000" stroke-width="0.5pt" stroke-dasharray="none" points="170.785,370.000 170.785,367.830 "/>
      <polyline fill="none" stroke="#000000" stroke-width="0.5pt" stroke-dasharray="none" points="176.335,370.000 176.335,367.830 "/>
      <polyline fill="none" stroke="#000000" stroke-width="0.5pt" stroke-dasharray="none" points="213.962,370.000 213.962,367.830 "/>
      <polyline fill="none" stroke="#000000" stroke-width="0.5pt" stroke-dasharray="none" points="233.068,370.000 233.068,367.830 "/>
      <polyline fill="none" stroke="#000000" stroke-width="0.5pt" stroke-dasharray="none" points="246.624,370.000 246.624,367.830 "/>
      <polyline fill="none" stroke="#000000" stroke-width="0.5pt" stroke-dasharray="none" points="257.138,370.000 257.138,367.830 "/>
      <polyline fill="none" stroke="#000000" stroke-width="0.5pt" stroke-dasharray="none" points="265.729,370.000 265.729,367.830 "/>
      <polyline fill="none" stroke="#000000" stroke-width="0.5pt" stroke-dasharray="none" points="272.993,370.000 272.993,367.830 "/>
      <polyline fill="none" stroke="#000000" stroke-width="0.5pt" stroke-dasharray="none" points="279.285,370.000 279.285,367.830 "/>
      <polyline fill="none" stroke="#000000" stroke-width="0.5pt" stroke-dasharray="none" points="284.835,370.000 284.835,367.830 "/>
      <polyline fill="none" stroke="#000000" stroke-width="0.5pt" stroke-dasharray="none" points="322.462,370.000 322.462,367.830 "/>
      <polyline fill="none" stroke="#000000" stroke-width="0.5pt" stroke-dasharray="none" points="341.568,370.000 341.568,367.830 "/>
      <polyline fill="none" stroke="#000000" stroke-width="0.5pt" stroke-dasharray="none" points="355.124,370.000 355.124,367.830 "/>
      <polyline fill="none" stroke="#000000" stroke-width="0.5pt" stroke-dasharray="none" points="365.638,370.000 365.638,367.830 "/>
      <polyline fill="none" stroke="#000000" stroke-width="0.5pt" stroke-dasharray="none" points="374.229,370.000 374.229,367.830 "/>
      <polyline fill="none" stroke="#000000" stroke-width="0.5pt" stroke-dasharray="none" points="381.493,370.000 381.493,367.830 "/>
      <polyline fill="none" stroke="#000000" stroke-width="0.5pt" stroke-dasharray="none" points="387.785,370.000 387.785,367.830 "/>
      <polyline fill="none" stroke="#000000" stroke-width="0.5pt" stroke-dasharray="none" points="393.335,370.000 393.335,367.830 "/>
      <polyline fill="none" stroke="#000000" stroke-width="0.5pt" stroke-dasharray="none" points="430.962,370.000 430.962,367.830 "/>
      <polyline fill="none" stroke="#000000" stroke-width="0.5pt" stroke-dasharray="none" points="450.068,370.000 450.068,367.830 "/>
      <polyline fill="none" stroke="#000000" stroke-width="0.5pt" stroke-dasharray="none" points="463.624,370.000 463.624,367.830 "/>
      <polyline fill="none" stroke="#000000" stroke-width="0.5pt" stroke-dasharray="none" points="474.138,370.000 474.138,367.830 "/>
      <polyline fill="none" stroke="#000000" stroke-width="0.5pt" stroke-dasharray="none" points="482.729,370.000 482.729,367.830 "/>
      <polyline fill="none" stroke="#000000" stroke-width="0.5pt" stroke-dasharray="none" points="489.993,370.000 489.993,367.830 "/>
      <polyline fill="none" stroke="#000000" stroke-width="0.5pt" stroke-dasharray="none" points="496.285,370.000 496.285,367.830 "/>
      <polyline fill="none" stroke="#000000" stroke-width="0.5pt" stroke-dasharray="none" points="501.835,370.000 501.835,367.830 "/>
      <polyline fill="none" stroke="#000000" stroke-width="0.5pt" stroke-dasharray="none" points="105.462,31.500 105.462,33.670 "/>
      <polyline fill="none" stroke="#000000" stroke-width="0.5pt" stroke-dasharray="none" points="124.568,31.500 124.568,33.670 "/>
      <polyline fill="none" stroke="#000000" stroke-width="0.5pt" stroke-dasharray="none" points="138.124,31.500 138.124,33.670 "/>
      <polyline fill="none" stroke="#000000" stroke-width="0.5pt" stroke-dasharray="none" points="148.638,31.500 148.638,33.670 "/>
      <polyline fill="none" stroke="#000000" stroke-width="0.5pt" stroke-dasharray="none" points="157.229,31.500 157.229,33.670 "/>
      <polyline fill="none" stroke="#000000" stroke-width="0.5pt" stroke-dasharray="none" points="164.493,31.500 164.493,33.670 "/>
      <polyline fill="none" stroke="#000000" stroke-width="0.5pt" stroke-dasharray="none" points="170.785,31.500 170.785,33.670 "/>
      <polyline fill="none" stroke="#000000" stroke-width="0.5pt" stroke-dasharray="none" points="176.335,31.500 176.335,33.670 "/>
      <polyline fill="none" stroke="#000000" stroke-width="0.5pt" stroke-dasharray="none" points="213.962,31.500 213.962,33.670 "/>
      <polyline fill="none" stroke="#000000" stroke-width="0.5pt" stroke-dasharray="none" points="233.068,31.500 233.068,33.670 "/>
      <polyline fill="none" stroke="#000000" stroke-width="0.5pt" stroke-dasharray="none" points="246.624,31.500 246.624,33.670 "/>
      <polyline fill="none" stroke="#000000" stroke-width="0.5pt" stroke-dasharray="none" points="257.138,31.500 257.138,33.670 "/>
      <polyline fill="none" stroke="#000000" stroke-width="0.5pt" stroke-dasharray="none" points="265.729,31.500 265.729,33.670 "/>
      <polyline fill="none" stroke="#000000" stroke-width="0.5pt" stroke-dasharray="none" points="272.993,31.500 272.993,33.670 "/>
      <polyline fill="none" stroke="#000000" stroke-width="0.5pt" stroke-dasharray="none" points="279.285,31.500 279.285,33.670 "/>
      <polyline fill="none" stroke="#000000" stroke-width="0.5pt" stroke-dasharray="none" points="284.835,31.500 284.835,33.670 "/>
      <polyline fill="none" stroke="#000000" stroke-width="0.5pt" stroke-dasharray="none" points="322.462,31.500 322.462,33.670 "/>
      <polyline fill="none" stroke="#000000" stroke-width="0.5pt" stroke-dasharray="none" points="341.568,31.500 341.568,33.670 "/>
      <polyline fill="none" stroke="#000000" stroke-width="0.5pt" stroke-dasharray="none" points="355.124,31.500 355.124,33.670 "/>
      <polyline fill="none" stroke="#000000" stroke-width="0.5pt" stroke-dasharray="none" points="365.638,31.500 365.638,33.670 "/>
      <polyline fill="none" stroke="#000000" stroke-width="0.5pt" stroke-dasharray="none" points="374.229,31.500 374.229,33.670 "/>
      <polyline fill="none" stroke="#000000" stroke-width="0.5pt" stroke-dasharray="none" points="381.493,31.500 381.493,33.670 "/>
      <polyline fill="none" stroke="#000000" stroke-width="0.5pt" stroke-dasharray="none" points="387.785,31.500 387.785,33.670 "/>
      <polyline fill="none" stroke="#000000" stroke-width="0.5pt" stroke-dasharray="none" points="393.335,31.500 393.335,33.670 "/>
      <polyline fill="none" stroke="#000000" stroke-width="0.5pt" stroke-dasharray="none" points="430.962,31.500 430.962,33.670 "/>
      <polyline fill="none" stroke="#000000" stroke-width="0.5pt" stroke-dasharray="none" points="450.068,31.500 450.068,33.670 "/>
      <polyline fill="none" stroke="#000000" stroke-width="0.5pt" stroke-dasharray="none" points="463.624,31.500 463.624,33.670 "/>
      <polyline fill="none" stroke="#000000" stroke-width="0.5pt" stroke-dasharray="none" points="474.138,31.500 474.138,33.670 "/>
      <polyline fill="none" stroke="#000000" stroke-width="0.5pt" stroke-dasharray="none" points="482.729,31.500 482.729,33.670 "/>
      <polyline fill="none" stroke="#000000" stroke-width="0.5pt" stroke-dasharray="none" points="489.993,31.500 489.993,33.670 "/>
      <polyline fill="none" stroke="#000000" stroke-width="0.5pt" stroke-dasharray="none" points="496.285,31.500 496.285,33.670 "/>
      <polyline fill="none" stroke="#000000" stroke-width="0.5pt" stroke-dasharray="none" points="501.835,31.500 501.835,33.670 "/>
  <g transform="translate(72.800,395.730)">
    <g transform="rotate(-0.0)">
      <text x="0.000" y="0.000" font-family="Helvetica" text-anchor="middle" font-size="12pt" fill="#000000" >10<tspan font-size="8.4pt" dy="-8.4pt">-5</tspan></text>
    </g>
  </g>
  <g transform="translate(181.300,395.730)">
    <g transform="rotate(-0.0)">
      <text x="0.000" y="0.000" font-family="Helvetica" text-anchor="middle" font-size="12pt" fill="#000000" >10<tspan font-size="8.4pt" dy="-8.4pt">-4</tspan></text>
    </g>
  </g>
  <g transform="translate(289.800,395.730)">
    <g transform="rotate(-0.0)">
      <text x="0.000" y="0.000" font-family="Helvetica" text-anchor="middle" font-size="12pt" fill="#000000" >10<tspan font-size="8.4pt" dy="-8.4pt">-3</tspan></text>
    </g>
  </g>
  <g transform="translate(398.300,395.730)">
    <g transform="rotate(-0.0)">
      <text x="0.000" y="0.000" font-family="Helvetica" text-anchor="middle" font-size="12pt" fill="#000000" >10<tspan font-size="8.4pt" dy="-8.4pt">-2</tspan></text>
    </g>
  </g>
  <g transform="translate(506.800,395.730)">
    <g transform="rotate(-0.0)">
      <text x="0.000" y="0.000" font-family="Helvetica" text-anchor="middle" font-size="12pt" fill="#000000" >10<tspan font-size="8.4pt" dy="-8.4pt">-1</tspan></text>
    </g>
  </g>
      <polyline fill="none" stroke="#000000" stroke-width="0.5pt" stroke-dasharray="none" points="72.800,257.167 77.140,257.167 "/>
      <polyline fill="none" stroke="#000000" stroke-width="0.5pt" stroke-dasharray="none" points="72.800,144.333 77.140,144.333 "/>
      <polyline fill="none" stroke="#000000" stroke-width="0.5pt" stroke-dasharray="none" points="72.800,370.000 72.800,31.500 "/>
      <polyline fill="none" stroke="#000000" stroke-width="0.5pt" stroke-dasharray="none" points="506.800,257.167 502.460,257.167 "/>
      <polyline fill="none" stroke="#000000" stroke-width="0.5pt" stroke-dasharray="none" points="506.800,144.333 502.460,144.333 "/>
      <polyline fill="none" stroke="#000000" stroke-width="0.5pt" stroke-dasharray="none" points="506.800,370.000 506.800,31.500 "/>
      <polyline fill="none" stroke="#000000" stroke-width="0.5pt" stroke-dasharray="none" points="72.800,336.034 74.970,336.034 "/>
      <polyline fill="none" stroke="#000000" stroke-width="0.5pt" stroke-dasharray="none" points="72.800,316.165 74.970,316.165 "/>
      <polyline fill="none" stroke="#000000" stroke-width="0.5pt" stroke-dasharray="none" points="72.800,302.068 74.970,302.068 "/>
      <polyline fill="none" stroke="#000000" stroke-width="0.5pt" stroke-dasharray="none" points="72.800,291.133 74.970,291.133 "/>
      <polyline fill="none" stroke="#000000" stroke-width="0.5pt" stroke-dasharray="none" points="72.800,282.199 74.970,282.199 "/>
      <polyline fill="none" stroke="#000000" stroke-width="0.5pt" stroke-dasharray="none" points="72.800,274.645 74.970,274.645 "/>
      <polyline fill="none" stroke="#000000" stroke-width="0.5pt" stroke-dasharray="none" points="72.800,268.101 74.970,268.101 "/>
      <polyline fill="none" stroke="#000000" stroke-width="0.5pt" stroke-dasharray="none" points="72.800,262.330 74.970,262.330 "/>
      <polyline fill="none" stroke="#000000" stroke-width="0.5pt" stroke-dasharray="none" points="72.800,223.200 74.970,223.200 "/>
      <polyline fill="none" stroke="#000000" stroke-width="0.5pt" stroke-dasharray="none" points="72.800,203.331 74.970,203.331 "/>
      <polyline fill="none" stroke="#000000" stroke-width="0.5pt" stroke-dasharray="none" points="72.800,189.234 74.970,189.234 "/>
      <polyline fill="none" stroke="#000000" stroke-width="0.5pt" stroke-dasharray="none" points="72.800,178.300 74.970,178.300 "/>
      <polyline fill="none" stroke="#000000" stroke-width="0.5pt" stroke-dasharray="none" points="72.800,169.365 74.970,169.365 "/>
      <polyline fill="none" stroke="#000000" stroke-width="0.5pt" stroke-dasharray="none" points="72.800,161.811 74.970,161.811 "/>
      <polyline fill="none" stroke="#000000" stroke-width="0.5pt" stroke-dasharray="none" points="72.800,155.268 74.970,155.268 "/>
      <polyline fill="none" stroke="#000000" stroke-width="0.5pt" stroke-dasharray="none" points="72.800,149.496 74.970,149.496 "/>
      <polyline fill="none" stroke="#000000" stroke-width="0.5pt" stroke-dasharray="none" points="72.800,110.367 74.970,110.367 "/>
      <polyline fill="none" stroke="#000000" stroke-width="0.5pt" stroke-dasharray="none" points="72.800,90.498 74.970,90.498 "/>
      <polyline fill="none" stroke="#000000" stroke-width="0.5pt" stroke-dasharray="none" points="72.800,76.401 74.970,76.401 "/>
      <polyline fill="none" stroke="#000000" stroke-width="0.5pt" stroke-dasharray="none" points="72.800,65.466 74.970,65.466 "/>
      <polyline fill="none" stroke="#000000" stroke-width="0.5pt" stroke-dasharray="none" points="72.800,56.532 74.970,56.532 "/>
      <polyline fill="none" stroke="#000000" stroke-width="0.5pt" stroke-dasharray="none" points="72.800,48.978 74.970,48.978 "/>
      <polyline fill="none" stroke="#000000" stroke-width="0.5pt" stroke-dasharray="none" points="72.800,42.435 74.970,42.435 "/>
      <polyline fill="none" stroke="#000000" stroke-width="0.5pt" stroke-dasharray="none" points="72.800,36.663 74.970,36.663 "/>
      <polyline fill="none" stroke="#000000" stroke-width="0.5pt" stroke-dasharray="none" points="506.800,336.034 504.630,336.034 "/>
      <polyline fill="none" stroke="#000000" stroke-width="0.5pt" stroke-dasharray="none" points="506.800,316.165 504.630,316.165 "/>
      <polyline fill="none" stroke="#000000" stroke-width="0.5pt" stroke-dasharray="none" points="506.800,302.068 504.630,302.068 "/>
      <polyline fill="none" stroke="#000000" stroke-width="0.5pt" stroke-dasharray="none" points="506.800,291.133 504.630,291.133 "/>
      <polyline fill="none" stroke="#000000" stroke-width="0.5pt" stroke-dasharray="none" points="506.800,282.199 504.630,282.199 "/>
      <polyline fill="none" stroke="#000000" stroke-width="0.5pt" stroke-dasharray="none" points="506.800,274.645 504.630,274.645 "/>
      <polyline fill="none" stroke="#000000" stroke-width="0.5pt" stroke-dasharray="none" points="506.800,268.101 504.630,268.101 "/>
      <polyline fill="none" stroke="#000000" stroke-width="0.5pt" stroke-dasharray="none" points="506.800,262.330 504.630,262.330 "/>
      <polyline fill="none" stroke="#000000" stroke-width="0.5pt" stroke-dasharray="none" points="506.800,223.200 504.630,223.200 "/>
      <polyline fill="none" stroke="#000000" stroke-width="0.5pt" stroke-dasharray="none" points="506.800,203.331 504.630,203.331 "/>
      <polyline fill="none" stroke="#000000" stroke-width="0.5pt" stroke-dasharray="none" points="506.800,189.234 504.630,189.234 "/>
      <polyline fill="none" stroke="#000000" stroke-width="0.5pt" stroke-dasharray="none" points="506.800,178.300 504.630,178.300 "/>
      <polyline fill="none" stroke="#000000" stroke-width="0.5pt" stroke-dasharray="none" points="506.800,169.365 504.630,169.365 "/>
      <polyline fill="none" stroke="#000000" stroke-width="0.5pt" stroke-dasharray="none" points="506.800,161.811 504.630,161.811 "/>
      <polyline fill="none" stroke="#000000" stroke-width="0.5pt" stroke-dasharray="none" points="506.800,155.268 504.630,155.268 "/>
      <polyline fill="none" stroke="#000000" stroke-width="0.5pt" stroke-dasharray="none" points="506.800,149.496 504.630,149.496 "/>
      <polyline fill="none" stroke="#000000" stroke-width="0.5pt" stroke-dasharray="none" points="506.800,110.367 504.630,110.367 "/>
      <polyline fill="none" stroke="#000000" stroke-width="0.5pt" stroke-dasharray="none" points="506.800,90.498 504.630,90.498 "/>
      <polyline fill="none" stroke="#000000" stroke-width="0.5pt" stroke-dasharray="none" points="506.800,76.401 504.630,76.401 "/>
      <polyline fill="none" stroke="#000000" stroke-width="0.5pt" stroke-dasharray="none" points="506.800,65.466 504.630,65.466 "/>
      <polyline fill="none" stroke="#000000" stroke-width="0.5pt" stroke-dasharray="none" points="506.800,56.532 504.630,56.532 "/>
      <polyline fill="none" stroke="#000000" stroke-width="0.5pt" stroke-dasharray="none" points="506.800,48.978 504.630,48.978 "/>
      <polyline fill="none" stroke="#000000" stroke-width="0.5pt" stroke-dasharray="none" points="506.800,42.435 504.630,42.435 "/>
      <polyline fill="none" stroke="#000000" stroke-width="0.5pt" stroke-dasharray="none" points="506.800,36.663 504.630,36.663 "/>
  <g transform="translate(64.120,380.200)">
    <g transform="rotate(-0.0)">
      <text x="0.000" y="0.000" font-family="Helvetica" text-anchor="end" font-size="12pt" fill="#000000" >10<tspan font-size="8.4pt" dy="-8.4pt">-4</tspan></text>
    </g>
  </g>
  <g transform="translate(64.120,267.367)">
    <g transform="rotate(-0.0)">
      <text x="0.000" y="0.000" font-family="Helvetica" text-anchor="end" font-size="12pt" fill="#000000" >10<tspan font-size="8.4pt" dy="-8.4pt">-3</tspan></text>
    </g>
  </g>
  <g transform="translate(64.120,154.533)">
    <g transform="rotate(-0.0)">
      <text x="0.000" y="0.000" font-family="Helvetica" text-anchor="end" font-size="12pt" fill="#000000" >10<tspan font-size="8.4pt" dy="-8.4pt">-2</tspan></text>
    </g>
  </g>
  <g transform="translate(64.120,41.700)">
    <g transform="rotate(-0.0)">
      <text x="0.000" y="0.000" font-family="Helvetica" text-anchor="end" font-size="12pt" fill="#000000" >10<tspan font-size="8.4pt" dy="-8.4pt">-1</tspan></text>
    </g>
  </g>
      <polyline fill="none" stroke="#000000" stroke-width="0.5pt" stroke-dasharray="none" points="72.800,370.000 72.800,366.615 "/>
      <polyline fill="none" stroke="#000000" stroke-width="0.5pt" stroke-dasharray="none" points="72.800,370.000 72.800,370.000 "/>
    </g>
  </g>
  <g id ="ID000011">
  <clipPath id="ID000012">
    <rect x="229.833" y="39.167" width="272.000" height="87.333"/>
  </clipPath>
      <polygon fill="#ffffff" fill-opacity="1.00" stroke="none" stroke-width="0.5pt" stroke-opacity="1.00" stroke-dasharray="none" points="229.833,126.500 501.833,126.500 501.833,39.167 229.833,39.167 "/>
      <polygon fill="#ffffff" fill-opacity="1.00" stroke="none" stroke-width="0.5pt" stroke-opacity="1.00" stroke-dasharray="none" points="229.833,39.167 501.833,39.167 501.833,39.167 229.833,39.167 "/>
      <polygon fill="#ffffff" fill-opacity="1.00" stroke="none" stroke-width="0.5pt" stroke-opacity="1.00" stroke-dasharray="none" points="229.833,126.500 229.833,126.500 229.833,39.167 229.833,39.167 "/>
    <g>
<g id="ID000013" >
  <g transform="translate(282.333,57.964)">
    <g transform="rotate(-0.0)">
      <text x="0.000" y="0.000" font-family="Helvetica" text-anchor="start" font-size="12pt" fill="#000000" >Image of Radial Strain</text>
    </g>
  </g>
</g>
<g id="ID000014" clip-path="url(#ID000012)" >
      <polyline fill="none" stroke="#ff0000" stroke-width="2.0pt" stroke-dasharray="none" points="237.833,51.833 277.833,51.833 "/>
<g>
</g>
</g>
<g id="ID000015" clip-path="url(#ID000012)" >
<g>
      <polygon fill="#ff0000" fill-opacity="1.00" stroke="#000000" stroke-width="2.0pt" stroke-opacity="1.00" stroke-dasharray="none" points="255.167,49.167 255.167,54.500 260.500,54.500 260.500,49.167 255.167,49.167 "/>
</g>
</g>
<g id="ID000016" >
  <g transform="translate(282.333,78.805)">
    <g transform="rotate(-0.0)">
      <text x="0.000" y="0.000" font-family="Helvetica" text-anchor="start" font-size="12pt" fill="#000000" >Image of Circumferential Strain</text>
    </g>
  </g>
</g>
<g id="ID000017" clip-path="url(#ID000012)" >
      <polyline fill="none" stroke="#00ff00" stroke-width="2.0pt" stroke-dasharray="none" points="237.833,72.500 277.833,72.500 "/>
<g>
</g>
</g>
<g id="ID000018" clip-path="url(#ID000012)" >
<g>
      <polygon fill="#00ff00" fill-opacity="1.00" stroke="#000000" stroke-width="2.0pt" stroke-opacity="1.00" stroke-dasharray="none" points="255.167,69.833 255.167,75.167 260.500,75.167 260.500,69.833 255.167,69.833 "/>
</g>
</g>
<g id="ID000019" >
  <g transform="translate(282.333,99.646)">
    <g transform="rotate(-0.0)">
      <text x="0.000" y="0.000" font-family="Helvetica" text-anchor="start" font-size="12pt" fill="#000000" >Image of Longitudinal Strain</text>
    </g>
  </g>
</g>
<g id="ID000020" clip-path="url(#ID000012)" >
      <polyline fill="none" stroke="#0000ff" stroke-width="2.0pt" stroke-dasharray="none" points="237.833,93.167 277.833,93.167 "/>
<g>
</g>
</g>
<g id="ID000021" clip-path="url(#ID000012)" >
<g>
      <polygon fill="#0000ff" fill-opacity="1.00" stroke="#000000" stroke-width="2.0pt" stroke-opacity="1.00" stroke-dasharray="none" points="255.167,90.500 255.167,95.833 260.500,95.833 260.500,90.500 255.167,90.500 "/>
</g>
</g>
<g id="ID000022" >
  <g transform="translate(282.333,120.487)">
    <g transform="rotate(-0.0)">
      <text x="0.000" y="0.000" font-family="Helvetica" text-anchor="start" font-size="12pt" fill="#000000" >Image of Combined Strains</text>
    </g>
  </g>
</g>
<g id="ID000023" clip-path="url(#ID000012)" >
      <polyline fill="none" stroke="#ffff00" stroke-width="2.0pt" stroke-dasharray="none" points="237.833,113.833 277.833,113.833 "/>
<g>
</g>
</g>
<g id="ID000024" clip-path="url(#ID000012)" >
<g>
      <polygon fill="#ffff00" fill-opacity="1.00" stroke="#000000" stroke-width="2.0pt" stroke-opacity="1.00" stroke-dasharray="none" points="255.167,111.167 255.167,116.500 260.500,116.500 260.500,111.167 255.167,111.167 "/>
</g>
</g>
<g id="ID000025" >
</g>
<g id="ID000026" >
</g>
<g id="ID000027" >
</g>
    </g>
    <g>
      <polyline fill="none" stroke="#000000" stroke-width="0.5pt" stroke-dasharray="none" points="229.833,126.500 501.833,126.500 "/>
      <polyline fill="none" stroke="#000000" stroke-width="0.5pt" stroke-dasharray="none" points="229.833,39.167 501.833,39.167 "/>
      <polyline fill="none" stroke="#000000" stroke-width="0.5pt" stroke-dasharray="none" points="229.833,126.500 229.833,39.167 "/>
      <polyline fill="none" stroke="#000000" stroke-width="0.5pt" stroke-dasharray="none" points="501.833,126.500 501.833,39.167 "/>
      <polyline fill="none" stroke="#000000" stroke-width="0.5pt" stroke-dasharray="none" points="229.833,126.500 229.833,125.627 "/>
      <polyline fill="none" stroke="#000000" stroke-width="0.5pt" stroke-dasharray="none" points="229.833,126.500 229.833,126.500 "/>
    </g>
  </g>
  </g>
</svg>
